<svg width="33" height="41" viewBox="0 0 33 41" fill="none" xmlns="http://www.w3.org/2000/svg">
<path d="M2.9013 13.3076C4.51043 15.6842 6.97184 17.1721 14.416 20.1452C15.7373 19.2347 16.5321 18.808 18.7729 19.3247C20.5279 18.5123 21.2828 18.9383 22.5074 20.1452C25.4425 18.0412 26.6629 16.8344 28.7315 14.6751C30.51 12.4258 31.3276 11.1082 32.466 8.65805C32.6156 6.35696 32.28 5.31693 31.2212 3.73498C29.0312 1.76338 27.8048 1.22647 25.6194 0.999939C23.1696 1.16269 22.3451 1.67238 20.9513 2.64096C18.4639 4.46112 17.537 5.75344 15.972 8.11105C14.3164 5.74725 13.3755 4.70364 11.6151 3.73498C9.74865 2.81623 8.57892 2.5619 6.63579 2.64096C3.80124 3.18973 2.65156 3.86175 1.34526 5.64951C1.03734 5.94026 1.03327 7.12363 1.34526 9.20506C1.60286 10.6993 2.06306 11.6238 2.86341 13.2315L2.9013 13.3076Z" fill="#F59FAF" stroke="black"/>
<path d="M14.4169 19.8717C8.99116 13.4392 7.18359 9.88008 10.9936 3.735C9.89688 3.21332 9.21965 2.95379 7.25913 2.91449C6.10907 2.96202 5.4927 3.07272 4.45826 3.4615C3.21072 4.01697 2.59724 4.49559 1.6574 5.64953C1.4031 5.99789 1.34784 6.24411 1.34619 6.74355C1.39789 8.24729 1.49201 9.08684 1.96861 10.5726C2.62697 12.6947 3.32267 13.7049 5.08068 15.2222C8.27598 17.3908 10.6219 18.3385 14.3777 19.8559L14.4169 19.8717Z" fill="#CE8895"/>
<ellipse cx="14.106" cy="11.1196" rx="0.933622" ry="1.36752" fill="black"/>
<ellipse cx="19.0845" cy="11.1196" rx="0.933622" ry="1.36752" fill="black"/>
<path d="M14.728 13.3077C15.0561 13.6621 15.2706 13.8551 15.9729 14.1282C16.6071 14.324 16.9373 14.2644 17.5289 14.1282C18.1507 13.9009 18.3095 13.705 18.4625 13.3077" stroke="black"/>
<path d="M16.2841 22.0599C15.982 21.1679 15.6095 20.5101 14.4168 20.1453C15.143 19.3228 15.6257 19.3166 16.5953 19.0513C17.8466 18.8742 18.1918 19.0268 18.7737 19.3248C19.4551 18.9256 19.8724 18.8757 20.641 19.0513C21.6312 19.2411 21.9369 19.5743 22.5082 20.1453C21.1284 20.6603 20.557 21.0381 19.7074 21.7864C19.2656 22.3609 19.1318 22.721 19.085 23.4274C19.1267 24.1659 19.0428 24.6541 18.7737 25.6154L17.8401 27.8035C18.7485 28.0594 19.4214 28.076 20.3298 27.8035C21.3785 27.3899 21.991 27.2626 23.1306 27.2564C25.1253 27.5935 25.7709 28.1444 26.8651 29.171C27.4427 29.9929 27.6827 30.4686 27.7988 31.359C27.1508 31.9701 26.5063 32.1531 25.3091 32.453C23.9104 32.6323 23.0888 32.6423 21.5746 32.453C20.4829 31.7209 19.9834 31.3074 20.0186 30.5385C19.3047 29.5302 18.7537 29.0932 17.2177 28.8975C16.0707 30.8267 15.4069 31.9077 13.7944 33.8205L13.172 33C14.6129 29.9482 15.6178 28.2772 16.2841 25.0684L10.0599 25.6154C8.42191 25.8151 7.48671 25.8308 5.70304 25.0684C4.43114 24.3796 3.75631 23.9631 3.21338 22.6069C3.5909 21.9026 3.87449 21.5274 4.76942 20.9658C6.30285 20.356 7.22351 20.1254 9.12632 20.1453C10.6477 20.7623 11.1329 21.2682 11.616 22.3334C13.4457 23.0264 14.4737 23.4259 16.2841 24.2479C16.4252 23.4144 16.5633 22.9558 16.2841 22.0599Z" fill="#35511A" stroke="black"/>
<ellipse cx="15.2131" cy="37.9231" rx="14.7126" ry="3.07692" fill="#656565"/>
</svg>
