<svg width="139" height="50" viewBox="0 0 139 50" fill="none" xmlns="http://www.w3.org/2000/svg">
<rect x="1.00049" y="8.5" width="134" height="41" rx="13.5" fill="#A1C298" stroke="black"/>
<path d="M109.333 6.21542C110.935 5.70494 111.854 5.54357 113.567 5.55062C113.94 4.66043 114.233 4.14755 115.195 3.15733C115.746 2.41976 116.19 2.03137 117.475 1.42885C118.614 1.1253 119.312 1.02198 120.732 1.02997C121.613 1.11905 122.29 1.20536 123.826 1.42885C124.755 1.60131 125.249 1.87396 126.106 2.49253C126.511 2.11026 126.848 1.87359 127.571 1.42885C128.381 1.06199 128.915 0.935855 130.177 1.02997C131.43 1.41492 132.097 1.69707 133.108 2.49253C133.98 3.4627 134.056 3.98017 133.922 4.88582C134.52 4.80782 135.038 4.87792 136.202 5.15174C137.288 5.46005 137.691 5.88257 138.319 6.74726C138.576 8.02493 138.545 8.71983 138.319 9.93831C137.796 11.1603 137.366 11.7637 136.202 12.5975C134.271 13.404 133.077 13.7576 130.665 14.193C124.678 14.4988 121.388 14.8572 115.195 14.5919C113.055 14.1899 111.881 13.9048 109.822 13.2623C108.501 12.7219 107.774 12.3817 106.728 11.135C106.474 10.0965 106.379 9.51426 106.728 8.47575C107.257 7.34375 107.936 6.90422 109.333 6.21542Z" fill="#ACD6F3" stroke="black"/>
<path d="M117.862 5.60441C117.88 5.33684 118.462 5.17454 118.725 5.11594C119.104 5.0314 119.457 4.96106 119.85 4.96106C120.147 4.96106 120.356 4.97535 120.582 5.16019C120.708 5.26281 120.895 5.45045 120.895 5.60441" stroke="black" stroke-linecap="round"/>
<path d="M124.916 5.78825C124.916 5.46901 125.544 5.32963 125.854 5.29808C126.32 5.25044 126.755 5.17554 127.225 5.17554C127.468 5.17554 127.78 5.23909 128.051 5.3134C128.321 5.3877 128.695 5.66913 128.668 5.97207" stroke="black" stroke-linecap="round"/>
<path d="M121.239 7.25878C121.156 7.24914 121.623 7.54217 121.783 7.64343C122 7.78138 122.362 7.78097 122.622 7.78097C123.152 7.78097 123.677 7.62753 123.978 7.25878" stroke="black" stroke-linecap="round"/>
<mask id="path-6-inside-1_501_566" fill="white">
<path d="M122.734 28.7763C123.694 26.5491 124.013 24.1057 122.127 22.4766C118.702 19.5186 114.513 24.09 113.282 26.9868C113.163 27.2672 113.005 27.5984 112.678 27.6485C112.377 26.03 112.076 24.4116 111.775 22.793C111.661 22.1834 111.542 21.5598 111.209 21.0204C110.603 20.0387 109.53 19.942 108.405 20.022C106.974 20.1246 105.671 20.9186 104.826 21.9721C103.579 23.5259 103.267 25.5911 103.66 27.4804C104.61 32.0475 109.027 35.8316 111.692 39.6425C111.805 39.8034 111.946 39.9814 112.155 39.9986C112.336 40.0139 112.496 39.9009 112.635 39.7938C116.561 36.7465 120.774 33.3223 122.734 28.7763Z"/>
</mask>
<path d="M122.734 28.7763C123.694 26.5491 124.013 24.1057 122.127 22.4766C118.702 19.5186 114.513 24.09 113.282 26.9868C113.163 27.2672 113.005 27.5984 112.678 27.6485C112.377 26.03 112.076 24.4116 111.775 22.793C111.661 22.1834 111.542 21.5598 111.209 21.0204C110.603 20.0387 109.53 19.942 108.405 20.022C106.974 20.1246 105.671 20.9186 104.826 21.9721C103.579 23.5259 103.267 25.5911 103.66 27.4804C104.61 32.0475 109.027 35.8316 111.692 39.6425C111.805 39.8034 111.946 39.9814 112.155 39.9986C112.336 40.0139 112.496 39.9009 112.635 39.7938C116.561 36.7465 120.774 33.3223 122.734 28.7763Z" fill="#F59FAF"/>
<path d="M122.127 22.4766L122.781 21.7198L122.781 21.7199L122.127 22.4766ZM113.282 26.9868L112.362 26.5959L112.362 26.5957L113.282 26.9868ZM112.678 27.6485L112.83 28.6369L111.872 28.7839L111.695 27.8315L112.678 27.6485ZM111.775 22.793L112.758 22.6098L112.758 22.6102L111.775 22.793ZM111.209 21.0204L112.06 20.495L112.06 20.495L111.209 21.0204ZM108.405 20.022L108.333 19.0246L108.334 19.0245L108.405 20.022ZM104.826 21.9721L105.606 22.5979L105.606 22.5981L104.826 21.9721ZM103.66 27.4804L104.639 27.2767L104.639 27.2768L103.66 27.4804ZM111.692 39.6425L110.873 40.2159L110.873 40.2157L111.692 39.6425ZM112.155 39.9986L112.237 39.002L112.239 39.0022L112.155 39.9986ZM112.635 39.7938L113.248 40.5838L113.247 40.5848L112.635 39.7938ZM121.816 28.3805C122.745 26.2246 122.821 24.3974 121.473 23.2334L122.781 21.7199C125.205 23.814 124.643 26.8735 123.652 29.1721L121.816 28.3805ZM121.474 23.2335C120.809 22.6594 120.161 22.4837 119.538 22.524C118.883 22.5663 118.174 22.8548 117.453 23.3566C115.997 24.3713 114.754 26.0803 114.202 27.3779L112.362 26.5957C113.041 24.9966 114.508 22.9714 116.31 21.7157C117.219 21.0824 118.276 20.6015 119.409 20.5282C120.573 20.4528 121.733 20.8149 122.781 21.7198L121.474 23.2335ZM114.202 27.3777C114.143 27.5168 114.032 27.7772 113.851 28.0129C113.657 28.2657 113.329 28.5603 112.83 28.6369L112.526 26.6601C112.451 26.6717 112.383 26.7012 112.332 26.7358C112.286 26.7673 112.265 26.7945 112.265 26.7951C112.265 26.7953 112.275 26.7815 112.294 26.7438C112.314 26.7062 112.334 26.6602 112.362 26.5959L114.202 27.3777ZM111.695 27.8315C111.394 26.213 111.093 24.5945 110.791 22.9759L112.758 22.6102C113.059 24.2287 113.36 25.847 113.661 27.4655L111.695 27.8315ZM110.792 22.9763C110.673 22.3378 110.578 21.9012 110.358 21.5458L112.06 20.495C112.507 21.2184 112.649 22.029 112.758 22.6098L110.792 22.9763ZM110.358 21.5458C110.082 21.0987 109.586 20.9406 108.476 21.0195L108.334 19.0245C109.475 18.9434 111.124 18.9786 112.06 20.495L110.358 21.5458ZM108.476 21.0194C107.364 21.0992 106.304 21.7275 105.606 22.5979L104.046 21.3463C105.038 20.1097 106.584 19.15 108.333 19.0246L108.476 21.0194ZM105.606 22.5981C104.583 23.8718 104.294 25.6148 104.639 27.2767L102.681 27.6842C102.241 25.5673 102.574 23.1801 104.046 21.3461L105.606 22.5981ZM104.639 27.2768C105.066 29.3262 106.286 31.2636 107.821 33.2297C108.586 34.2091 109.4 35.1617 110.214 36.1356C111.019 37.0994 111.819 38.0787 112.511 39.0694L110.873 40.2157C110.233 39.3009 109.481 38.3781 108.679 37.4178C107.885 36.4677 107.036 35.4742 106.245 34.4604C104.667 32.4399 103.205 30.2017 102.681 27.6841L104.639 27.2768ZM112.511 39.0692C112.534 39.1014 112.547 39.1194 112.557 39.1309C112.566 39.1422 112.564 39.1376 112.55 39.1252C112.52 39.0992 112.412 39.0164 112.237 39.002L112.073 40.9952C111.688 40.9636 111.405 40.7832 111.225 40.6236C111.054 40.473 110.934 40.3041 110.873 40.2159L112.511 39.0692ZM112.239 39.0022C112.091 38.9896 111.991 39.0343 111.966 39.0464C111.954 39.0526 111.952 39.0547 111.964 39.0466C111.976 39.0383 111.994 39.0257 112.023 39.0028L113.247 40.5848C113.149 40.66 112.693 41.0477 112.071 40.995L112.239 39.0022ZM112.022 39.0038C115.979 35.933 119.973 32.654 121.816 28.3804L123.652 29.1721C121.575 33.9905 117.144 37.5601 113.248 40.5838L112.022 39.0038Z" fill="black" mask="url(#path-6-inside-1_501_566)"/>
<mask id="path-8-inside-2_501_566" fill="white">
<path d="M41.3654 22.8441C40.3197 19.6807 34.949 20.7418 32.2719 22.042C30.4855 22.9094 29.0433 24.1204 27.8419 25.4545C27.3774 23.5911 26.2002 21.7858 24.1378 20.6526C21.2844 19.0846 17.2466 20.5888 15.6288 22.5595C13.6398 24.9833 14.5974 28.0962 16.069 30.5182C17.8274 33.4128 20.6015 35.9366 22.151 38.9033C22.332 39.2496 25.482 38.2185 25.1938 37.6664C22.8835 33.2432 17.2624 29.3184 17.598 24.3378C17.6666 23.3197 17.9717 22.1234 18.9341 21.3198C18.9356 21.3187 18.9363 21.3182 18.9374 21.3172C19.0942 21.3229 19.2506 21.3288 19.407 21.3345C19.7933 21.3797 20.1866 21.4916 20.5284 21.6235C21.2125 21.8871 21.7922 22.301 22.2758 22.7264C24.4198 24.6131 25.2977 27.1044 24.9327 29.483C24.8618 29.9465 27.7295 28.8789 27.9931 28.4441C28.8006 27.1127 29.7449 25.8306 30.8582 24.6126C31.5963 23.8054 32.62 22.4499 33.9859 22.1443C35.6958 21.762 37.5504 22.5729 38.1563 23.6813C38.7849 24.831 38.2686 26.0736 37.5574 27.1372C35.969 29.5132 33.6139 31.6543 31.29 33.6912C30.1305 34.7075 28.9412 35.7063 27.7684 36.7149C26.6665 37.6625 25.5863 38.6112 25.2162 39.8348C25.0976 40.2262 26.4293 39.8054 26.5703 39.7586C27.0568 39.5978 28.1452 39.2292 28.2766 38.796C28.7708 37.1626 30.7055 35.8782 32.1702 34.6274C33.6032 33.404 35.033 32.1772 36.3732 30.9021C37.7953 29.5492 39.1238 28.1415 40.2286 26.6472C41.0955 25.4749 41.8075 24.1822 41.3654 22.8441Z"/>
</mask>
<path d="M41.3654 22.8441C40.3197 19.6807 34.949 20.7418 32.2719 22.042C30.4855 22.9094 29.0433 24.1204 27.8419 25.4545C27.3774 23.5911 26.2002 21.7858 24.1378 20.6526C21.2844 19.0846 17.2466 20.5888 15.6288 22.5595C13.6398 24.9833 14.5974 28.0962 16.069 30.5182C17.8274 33.4128 20.6015 35.9366 22.151 38.9033C22.332 39.2496 25.482 38.2185 25.1938 37.6664C22.8835 33.2432 17.2624 29.3184 17.598 24.3378C17.6666 23.3197 17.9717 22.1234 18.9341 21.3198C18.9356 21.3187 18.9363 21.3182 18.9374 21.3172C19.0942 21.3229 19.2506 21.3288 19.407 21.3345C19.7933 21.3797 20.1866 21.4916 20.5284 21.6235C21.2125 21.8871 21.7922 22.301 22.2758 22.7264C24.4198 24.6131 25.2977 27.1044 24.9327 29.483C24.8618 29.9465 27.7295 28.8789 27.9931 28.4441C28.8006 27.1127 29.7449 25.8306 30.8582 24.6126C31.5963 23.8054 32.62 22.4499 33.9859 22.1443C35.6958 21.762 37.5504 22.5729 38.1563 23.6813C38.7849 24.831 38.2686 26.0736 37.5574 27.1372C35.969 29.5132 33.6139 31.6543 31.29 33.6912C30.1305 34.7075 28.9412 35.7063 27.7684 36.7149C26.6665 37.6625 25.5863 38.6112 25.2162 39.8348C25.0976 40.2262 26.4293 39.8054 26.5703 39.7586C27.0568 39.5978 28.1452 39.2292 28.2766 38.796C28.7708 37.1626 30.7055 35.8782 32.1702 34.6274C33.6032 33.404 35.033 32.1772 36.3732 30.9021C37.7953 29.5492 39.1238 28.1415 40.2286 26.6472C41.0955 25.4749 41.8075 24.1822 41.3654 22.8441Z" fill="#F59FAF"/>
<path d="M32.2719 22.042L32.6214 22.7616L32.6213 22.7616L32.2719 22.042ZM27.8419 25.4545L28.4363 25.9899L27.4295 27.1078L27.0656 25.648L27.8419 25.4545ZM24.1378 20.6526L23.7525 21.3537L23.7525 21.3537L24.1378 20.6526ZM15.6288 22.5595L15.0103 22.052L15.0104 22.0518L15.6288 22.5595ZM16.069 30.5182L16.7527 30.1028L16.7527 30.1029L16.069 30.5182ZM22.151 38.9033L21.442 39.2738L21.4419 39.2736L22.151 38.9033ZM25.1938 37.6664L25.9029 37.296L25.9029 37.2962L25.1938 37.6664ZM17.598 24.3378L16.7998 24.2841L16.7998 24.284L17.598 24.3378ZM18.9341 21.3198L18.4213 20.7057L18.4466 20.6846L18.4736 20.6656L18.9341 21.3198ZM18.9374 21.3172L18.3899 20.7339L18.6331 20.5056L18.9664 20.5177L18.9374 21.3172ZM19.407 21.3345L19.4361 20.535L19.4682 20.5362L19.5001 20.5399L19.407 21.3345ZM20.5284 21.6235L20.2407 22.3699L20.2406 22.3699L20.5284 21.6235ZM22.2758 22.7264L22.8042 22.1258L22.8043 22.1259L22.2758 22.7264ZM24.9327 29.483L24.1419 29.3621L24.142 29.3617L24.9327 29.483ZM27.9931 28.4441L27.3091 28.0294L27.3091 28.0293L27.9931 28.4441ZM30.8582 24.6126L30.2677 24.0729L30.2678 24.0728L30.8582 24.6126ZM33.9859 22.1443L33.8112 21.3636L33.8113 21.3636L33.9859 22.1443ZM38.1563 23.6813L37.4543 24.0651L37.4543 24.065L38.1563 23.6813ZM37.5574 27.1372L36.8923 26.6926L36.8924 26.6926L37.5574 27.1372ZM31.29 33.6912L30.7627 33.0896L30.7627 33.0895L31.29 33.6912ZM27.7684 36.7149L28.2901 37.3215L28.29 37.3215L27.7684 36.7149ZM25.2162 39.8348L25.9819 40.0665L25.9818 40.0669L25.2162 39.8348ZM26.5703 39.7586L26.3184 38.9993L26.3193 38.999L26.5703 39.7586ZM28.2766 38.796L29.0423 39.0277L29.0421 39.0283L28.2766 38.796ZM32.1702 34.6274L31.6506 34.019L31.6507 34.0189L32.1702 34.6274ZM36.3732 30.9021L35.8218 30.3225L35.8218 30.3225L36.3732 30.9021ZM40.2286 26.6472L39.5854 26.1715L39.5854 26.1715L40.2286 26.6472ZM40.6058 23.0951C40.2576 22.0417 39.1652 21.5382 37.4447 21.5691C35.773 21.599 33.875 22.1527 32.6214 22.7616L31.9224 21.3223C33.3458 20.631 35.4718 20.0041 37.4161 19.9693C39.3117 19.9354 41.4275 20.483 42.125 22.593L40.6058 23.0951ZM32.6213 22.7616C30.9482 23.5741 29.5857 24.7136 28.4363 25.9899L27.2474 24.9191C28.5008 23.5273 30.0229 22.2448 31.9224 21.3223L32.6213 22.7616ZM27.0656 25.648C26.6493 23.9777 25.5996 22.3686 23.7525 21.3537L24.523 19.9515C26.8008 21.203 28.1055 23.2044 28.6181 25.261L27.0656 25.648ZM23.7525 21.3537C22.5619 20.6994 21.0672 20.6602 19.6298 21.051C18.1874 21.4431 16.9301 22.2351 16.2471 23.0671L15.0104 22.0518C15.9453 20.9131 17.5157 19.9677 19.2101 19.507C20.9094 19.0451 22.8603 19.0378 24.523 19.9515L23.7525 21.3537ZM16.2472 23.0669C14.6129 25.0585 15.3067 27.7231 16.7527 30.1028L15.3853 30.9337C13.888 28.4694 12.6666 24.908 15.0103 22.052L16.2472 23.0669ZM16.7527 30.1029C17.5969 31.4924 18.6877 32.7978 19.8094 34.1795C20.9135 35.5395 22.0434 36.9692 22.8601 38.5329L21.4419 39.2736C20.7091 37.8706 19.6771 36.5551 18.5672 35.1879C17.4749 33.8424 16.2996 32.4386 15.3853 30.9336L16.7527 30.1029ZM22.86 38.5327C22.7377 38.2988 22.5415 38.2178 22.4785 38.1961C22.4077 38.1717 22.3637 38.1723 22.3756 38.1728C22.395 38.1735 22.4671 38.1705 22.6024 38.1463C22.8618 38.0999 23.2177 38.0008 23.5732 37.8706C23.9344 37.7383 24.2424 37.5932 24.4268 37.4723C24.5266 37.4068 24.5331 37.3851 24.508 37.4193C24.4794 37.4583 24.3191 37.7197 24.4846 38.0366L25.9029 37.2962C26.1405 37.7512 25.9448 38.1656 25.7984 38.3652C25.6555 38.5602 25.4618 38.7069 25.304 38.8103C24.9732 39.0272 24.5364 39.2218 24.1234 39.373C23.7049 39.5263 23.2573 39.6545 22.8842 39.7213C22.7032 39.7536 22.5018 39.7787 22.3154 39.7716C22.2244 39.7682 22.0944 39.756 21.9578 39.709C21.8289 39.6646 21.5868 39.5511 21.442 39.2738L22.86 38.5327ZM24.4847 38.0368C23.9429 36.9995 23.1964 35.9723 22.3582 34.9152C21.5462 33.891 20.5912 32.7715 19.7686 31.6976C18.106 29.5273 16.6105 27.0921 16.7998 24.2841L18.3961 24.3916C18.2498 26.5641 19.397 28.5815 21.0387 30.7246C21.8682 31.8075 22.7307 32.8097 23.6119 33.9211C24.467 34.9996 25.2895 36.1217 25.9029 37.296L24.4847 38.0368ZM16.7998 24.284C16.8744 23.1768 17.213 21.7147 18.4213 20.7057L19.4469 21.9338C18.7305 22.5321 18.4588 23.4626 18.3961 24.3917L16.7998 24.284ZM18.4736 20.6656C18.4757 20.6641 18.4728 20.6662 18.4703 20.6679C18.467 20.6703 18.46 20.6753 18.4511 20.6821C18.4298 20.6983 18.4093 20.7157 18.3899 20.7339L19.4849 21.9005C19.4644 21.9197 19.443 21.9378 19.4207 21.9549C19.4113 21.962 19.4037 21.9674 19.3999 21.9702C19.3968 21.9724 19.3933 21.9749 19.3946 21.9739L18.4736 20.6656ZM18.9664 20.5177C19.1153 20.5231 19.2894 20.5297 19.4361 20.535L19.378 22.134C19.2119 22.1279 19.0731 22.1226 18.9084 22.1167L18.9664 20.5177ZM19.5001 20.5399C19.9695 20.5949 20.4293 20.7278 20.8163 20.8771L20.2406 22.3699C19.9438 22.2555 19.6172 22.1646 19.314 22.1291L19.5001 20.5399ZM20.8161 20.877C21.6186 21.1863 22.2789 21.6636 22.8042 22.1258L21.7474 23.3271C21.3055 22.9383 20.8063 22.588 20.2407 22.3699L20.8161 20.877ZM22.8043 22.1259C25.1376 24.1792 26.1328 26.9364 25.7235 29.6043L24.142 29.3617C24.4625 27.2724 23.7019 25.0471 21.7473 23.327L22.8043 22.1259ZM25.7235 29.6039C25.7517 29.4194 25.7065 29.179 25.524 28.9927C25.3797 28.8453 25.2249 28.8117 25.1888 28.8046C25.1148 28.7899 25.1045 28.8053 25.2186 28.7872C25.4105 28.7568 25.7172 28.6718 26.0696 28.5466C26.4148 28.4239 26.7639 28.277 27.033 28.141C27.1687 28.0725 27.2698 28.0139 27.3353 27.9696C27.4313 27.9048 27.3738 27.9226 27.3091 28.0294L28.6772 28.8589C28.5465 29.0744 28.3418 29.2206 28.2307 29.2956C28.0892 29.3912 27.9236 29.4837 27.7545 29.5691C27.414 29.7411 27.0011 29.9136 26.6053 30.0542C26.2168 30.1923 25.8034 30.3145 25.4692 30.3675C25.3204 30.3911 25.0956 30.4173 24.8773 30.374C24.7691 30.3525 24.5597 30.2947 24.381 30.1123C24.1641 29.8909 24.1048 29.6045 24.1419 29.3621L25.7235 29.6039ZM27.3091 28.0293C28.1421 26.6556 29.1174 25.3313 30.2677 24.0729L31.4487 25.1523C30.3724 26.3299 29.459 27.5697 28.6772 28.859L27.3091 28.0293ZM30.2678 24.0728C30.5951 23.7148 31.0925 23.1105 31.6446 22.6019C32.2075 22.0834 32.9293 21.5609 33.8112 21.3636L34.1605 22.925C33.6765 23.0333 33.2035 23.3413 32.7286 23.7788C32.2429 24.2261 31.8594 24.7031 31.4487 25.1524L30.2678 24.0728ZM33.8113 21.3636C34.8397 21.1337 35.8929 21.2644 36.7756 21.6084C37.6451 21.9472 38.4386 22.5299 38.8582 23.2976L37.4543 24.065C37.268 23.7243 36.8314 23.3473 36.1946 23.0992C35.5711 22.8562 34.842 22.7727 34.1604 22.9251L33.8113 21.3636ZM38.8582 23.2975C39.7244 24.8818 38.9491 26.4951 38.2224 27.5819L36.8924 26.6926C37.5881 25.652 37.8453 24.7803 37.4543 24.0651L38.8582 23.2975ZM38.2225 27.5819C36.5672 30.0579 34.133 32.2631 31.8173 34.2928L30.7627 33.0895C33.0948 31.0455 35.3708 28.9686 36.8923 26.6926L38.2225 27.5819ZM31.8173 34.2928C30.6551 35.3115 29.4522 36.322 28.2901 37.3215L27.2468 36.1084C28.4302 35.0907 29.6059 34.1036 30.7627 33.0896L31.8173 34.2928ZM28.29 37.3215C27.143 38.3079 26.272 39.1072 25.9819 40.0665L24.4504 39.6032C24.9005 38.1151 26.19 37.0172 27.2468 36.1084L28.29 37.3215ZM25.9818 40.0669C26.0008 40.0042 26.0221 39.8949 25.9979 39.7589C25.972 39.6132 25.9019 39.4839 25.8059 39.3859C25.7174 39.2956 25.6268 39.2516 25.5734 39.2309C25.5195 39.2101 25.4792 39.2037 25.4646 39.2018C25.4386 39.1983 25.4894 39.2042 25.6503 39.1744C25.9314 39.1224 26.2583 39.0192 26.3184 38.9993L26.8223 40.5179C26.7413 40.5448 26.3318 40.6754 25.9415 40.7477C25.7667 40.78 25.4979 40.8207 25.2512 40.7875C25.1413 40.7727 24.8781 40.7251 24.6632 40.5058C24.3804 40.2173 24.3754 39.8508 24.4506 39.6028L25.9818 40.0669ZM26.3193 38.999C26.564 38.9181 26.9138 38.7995 27.2126 38.6572C27.3629 38.5856 27.4711 38.5215 27.5369 38.4711C27.6225 38.4057 27.5519 38.4292 27.5111 38.5637L29.0421 39.0283C28.9356 39.3794 28.6797 39.6114 28.509 39.742C28.3186 39.8876 28.0996 40.0069 27.9006 40.1017C27.5007 40.2922 27.0632 40.4383 26.8213 40.5182L26.3193 38.999ZM27.5109 38.5643C27.8208 37.5401 28.5569 36.6914 29.3129 35.9841C30.0498 35.2946 30.984 34.5884 31.6506 34.019L32.6897 35.2357C31.8917 35.9172 31.1261 36.4786 30.406 37.1524C29.705 37.8083 29.2266 38.4185 29.0423 39.0277L27.5109 38.5643ZM31.6507 34.0189C33.0853 32.7943 34.4994 31.5807 35.8218 30.3225L36.9247 31.4817C35.5667 32.7737 34.1212 34.0137 32.6896 35.2358L31.6507 34.0189ZM35.8218 30.3225C37.2256 28.987 38.5182 27.6148 39.5854 26.1715L40.8719 27.1228C39.7293 28.6681 38.3651 30.1113 36.9247 31.4817L35.8218 30.3225ZM39.5854 26.1715C40.4567 24.9933 40.9085 24.0112 40.6058 23.095L42.125 22.5931C42.7065 24.3532 41.7343 25.9566 40.8718 27.1228L39.5854 26.1715Z" fill="black" mask="url(#path-8-inside-2_501_566)"/>
<path d="M68.273 21C67.7305 21 67.2102 21.2155 66.8266 21.5991C66.443 21.9827 66.2275 22.503 66.2275 23.0455V28.5C66.2275 29.0425 66.443 29.5628 66.8266 29.9464C67.2102 30.33 67.7305 30.5455 68.273 30.5455C68.8155 30.5455 69.3358 30.33 69.7193 29.9464C70.1029 29.5628 70.3184 29.0425 70.3184 28.5V23.0455C70.3184 22.503 70.1029 21.9827 69.7193 21.5991C69.3358 21.2155 68.8155 21 68.273 21V21Z" stroke="black" stroke-width="2" stroke-linecap="round" stroke-linejoin="round"/>
<path d="M73.0459 27.1364V28.5C73.0459 29.7658 72.5431 30.9798 71.648 31.8748C70.753 32.7699 69.539 33.2727 68.2732 33.2727C67.0074 33.2727 65.7934 32.7699 64.8984 31.8748C64.0033 30.9798 63.5005 29.7658 63.5005 28.5V27.1364" stroke="black" stroke-width="2" stroke-linecap="round" stroke-linejoin="round"/>
<path d="M68.2734 33.2727V36" stroke="black" stroke-width="2" stroke-linecap="round" stroke-linejoin="round"/>
<path d="M65.5459 36H71.0004" stroke="black" stroke-width="2" stroke-linecap="round" stroke-linejoin="round"/>
<path d="M44.5005 38.2429C36.3369 38.236 32.184 38.8154 25.5005 40.7429C31.55 41.4114 31.0012 42.7131 27.0005 45.7429C36.5442 41.3428 41.718 39.0139 44.5005 39.7429C53.8836 44.3 56.9007 45.365 60.0005 45.7429C66.1435 45.8219 71.8292 44.8804 83.0005 42.7429C92.3374 41.2199 98.2542 39.5448 104.5 41.7429C107.71 43.1049 108.835 44.3299 110.5 46.7429C111.824 44.2698 112.959 43.2377 116.5 42.7429C112.549 40.7576 110.286 39.6575 104.5 38.2429C102.078 37.5783 96.8441 38.2346 82.5005 40.7429C69.3681 42.9401 62.0449 44.1578 59.0005 42.7429C54.0558 40.4098 50.9787 39.3437 44.5005 38.2429Z" fill="#F59FAF" stroke="black" stroke-linecap="round"/>
</svg>
