<svg width="33" height="41" viewBox="0 0 33 41" fill="none" xmlns="http://www.w3.org/2000/svg">
<path d="M1.79592 10.5609C3.51523 7.59751 4.57159 5.97998 7.2127 3.46732C8.38878 2.66527 9.19361 2.26387 11.1248 1.61683C13.2501 1.09474 14.4316 1.03256 16.5416 1C18.5292 1.05217 19.6461 1.1573 21.6575 1.61683C23.6154 2.40346 24.5076 3.03995 25.8705 4.39257L29.1808 7.78514C30.758 9.7423 31.3075 10.9153 32.1901 13.0282C32.5239 14.6366 32.5122 15.4884 32.4919 16.9718L32.491 17.0376C32.4363 19.544 32.373 20.958 32.1901 23.5143C31.9953 24.7197 31.5425 25.4752 30.3845 26.9069C29.2038 28.4061 28.4832 29.1639 27.0742 30.2995C24.6493 31.5059 23.2415 32.1065 20.4537 32.7668C17.6349 33.044 16.0505 33.1097 13.2313 32.7668C11.1179 32.2658 9.98172 31.9396 8.41643 30.9163L1.79592 31.5331L4.50431 27.2153C3.58646 26.3939 3.16155 25.9187 2.69872 25.0564C1.61045 22.3518 1.20036 20.8767 0.59219 18.2713C0.422101 15.1419 0.332809 13.3884 1.79592 10.5609Z" fill="#F59FAF" stroke="black"/>
<path d="M8.00049 7L9.00049 3C7.83336 3.60157 7.20376 3.96524 6.50049 5C4.87566 6.54702 4.10986 7.5326 3.00049 9.5C2.05341 10.8835 1.68457 11.8316 1.00049 13.5V18C1.40809 20.1956 1.61272 21.4173 3.00049 24C3.12106 24.8995 3.19881 25.4085 5.00049 27L6.50049 26C8.16423 24.6947 8.84877 24.001 8.50049 23C7.43594 18.7668 6.18678 16.4788 7.00049 12L8.00049 7Z" fill="#BB7683"/>
<mask id="path-3-inside-1_501_560" fill="white">
<path d="M21.242 16.3583C21.762 15.1219 21.935 13.7654 20.9134 12.8611C19.058 11.2189 16.7889 13.7567 16.1222 15.3649C16.0577 15.5205 15.972 15.7044 15.795 15.7322C15.6319 14.8337 15.4687 13.9352 15.3056 13.0367C15.2441 12.6983 15.1798 12.3521 14.9994 12.0526C14.671 11.5076 14.09 11.454 13.4804 11.4984C12.7052 11.5553 11.9995 11.9961 11.5416 12.581C10.866 13.4436 10.6974 14.59 10.9103 15.6389C11.4249 18.1743 13.8171 20.2751 15.2609 22.3907C15.3219 22.48 15.3984 22.5788 15.5116 22.5883C15.6098 22.5968 15.6966 22.5341 15.7716 22.4746C17.8986 20.7829 20.1805 18.882 21.242 16.3583Z"/>
</mask>
<path d="M21.242 16.3583C21.762 15.1219 21.935 13.7654 20.9134 12.8611C19.058 11.2189 16.7889 13.7567 16.1222 15.3649C16.0577 15.5205 15.972 15.7044 15.795 15.7322C15.6319 14.8337 15.4687 13.9352 15.3056 13.0367C15.2441 12.6983 15.1798 12.3521 14.9994 12.0526C14.671 11.5076 14.09 11.454 13.4804 11.4984C12.7052 11.5553 11.9995 11.9961 11.5416 12.581C10.866 13.4436 10.6974 14.59 10.9103 15.6389C11.4249 18.1743 13.8171 20.2751 15.2609 22.3907C15.3219 22.48 15.3984 22.5788 15.5116 22.5883C15.6098 22.5968 15.6966 22.5341 15.7716 22.4746C17.8986 20.7829 20.1805 18.882 21.242 16.3583Z" fill="#FF7777"/>
<path d="M20.9134 12.8611L21.5762 12.1122L21.5762 12.1123L20.9134 12.8611ZM16.1222 15.3649L15.1984 14.982L15.1984 14.9819L16.1222 15.3649ZM15.795 15.7322L15.9504 16.7201L14.9856 16.8718L14.8111 15.9109L15.795 15.7322ZM15.3056 13.0367L16.2895 12.8578L16.2896 12.8582L15.3056 13.0367ZM14.9994 12.0526L15.8559 11.5365L15.8559 11.5366L14.9994 12.0526ZM13.4804 11.4984L13.4071 10.5011L13.4077 10.501L13.4804 11.4984ZM11.5416 12.581L12.329 13.1974L12.3289 13.1976L11.5416 12.581ZM10.9103 15.6389L11.8903 15.4399L11.8903 15.44L10.9103 15.6389ZM15.2609 22.3907L14.4351 22.9546L14.4349 22.9543L15.2609 22.3907ZM15.5116 22.5883L15.5956 21.5919L15.598 21.5921L15.5116 22.5883ZM15.7716 22.4746L16.3941 23.2573L16.3929 23.2583L15.7716 22.4746ZM20.3202 15.9706C20.8117 14.802 20.7482 14.0504 20.2506 13.6098L21.5762 12.1123C23.1218 13.4805 22.7123 15.4417 22.1638 16.746L20.3202 15.9706ZM20.2506 13.6099C19.9773 13.368 19.7472 13.3175 19.542 13.3312C19.303 13.347 19.0007 13.4597 18.6532 13.7079C17.9433 14.2148 17.3179 15.0919 17.0459 15.7479L15.1984 14.9819C15.5932 14.0297 16.4357 12.8338 17.4909 12.0803C18.0259 11.6983 18.6804 11.3839 19.4096 11.3355C20.1725 11.2849 20.9218 11.5331 21.5762 12.1122L20.2506 13.6099ZM17.046 15.7477C17.0144 15.8239 16.9362 16.0156 16.8012 16.1959C16.6544 16.392 16.3818 16.6522 15.9504 16.7201L15.6396 14.7444C15.3853 14.7844 15.244 14.9387 15.2004 14.997C15.1796 15.0248 15.1719 15.0416 15.1751 15.0353C15.1782 15.029 15.1846 15.0153 15.1984 14.982L17.046 15.7477ZM14.8111 15.9109C14.648 15.0124 14.4848 14.1139 14.3217 13.2153L16.2896 12.8582C16.4526 13.7566 16.6158 14.655 16.7789 15.5535L14.8111 15.9109ZM14.3218 13.2156C14.255 12.8482 14.2135 12.686 14.1428 12.5687L15.8559 11.5366C16.1461 12.0181 16.2332 12.5484 16.2895 12.8578L14.3218 13.2156ZM14.1429 12.5687C14.1264 12.5414 14.117 12.5356 14.117 12.5356C14.1153 12.5344 14.1031 12.5254 14.0673 12.515C13.9785 12.4893 13.8242 12.476 13.5531 12.4957L13.4077 10.501C14.0402 10.4549 15.201 10.4496 15.8559 11.5365L14.1429 12.5687ZM13.5537 12.4957C13.1053 12.5286 12.6436 12.7956 12.329 13.1974L10.7542 11.9645C11.3554 11.1966 12.3051 10.582 13.4071 10.5011L13.5537 12.4957ZM12.3289 13.1976C11.8718 13.7812 11.7221 14.6116 11.8903 15.4399L9.9303 15.8379C9.67256 14.5684 9.86022 13.106 10.7544 11.9643L12.3289 13.1976ZM11.8903 15.44C12.101 16.4778 12.7114 17.488 13.5327 18.5663C13.941 19.1023 14.3745 19.6219 14.8195 20.1679C15.2563 20.7038 15.7 21.2601 16.0869 21.827L14.4349 22.9543C14.0999 22.4634 13.7031 21.9638 13.2693 21.4315C12.8437 20.9094 12.3762 20.3487 11.9417 19.7781C11.0772 18.6433 10.2343 17.3354 9.93029 15.8378L11.8903 15.44ZM16.0867 21.8267C16.1122 21.8641 16.0909 21.8262 16.0381 21.7783C15.9757 21.7219 15.8257 21.6112 15.5956 21.5919L15.4277 23.5848C15.0843 23.5559 14.8394 23.3911 14.6952 23.2605C14.5605 23.1385 14.4705 23.0066 14.4351 22.9546L16.0867 21.8267ZM15.598 21.5921C15.4023 21.5751 15.2586 21.6343 15.1969 21.6657C15.1435 21.6929 15.1164 21.718 15.1504 21.691L16.3929 23.2583C16.3626 23.2822 15.9746 23.6322 15.4253 23.5846L15.598 21.5921ZM15.1492 21.692C17.3041 19.978 19.3727 18.2234 20.3202 15.9706L22.1638 16.746C20.9884 19.5406 18.493 21.5879 16.3941 23.2573L15.1492 21.692Z" fill="black" mask="url(#path-3-inside-1_501_560)"/>
<ellipse cx="16.5005" cy="38" rx="15" ry="3" fill="#656565"/>
</svg>
