<svg width="16" height="16" viewBox="0 0 16 16" fill="none" xmlns="http://www.w3.org/2000/svg">
<path d="M10.0494 1.65688L10.1812 1.95455H10.5067H14.2222C15.0223 1.95455 15.5 2.47437 15.5 2.90909V14.5455C15.5 14.9802 15.0223 15.5 14.2222 15.5H1.77778C0.97765 15.5 0.5 14.9802 0.5 14.5455V2.90909C0.5 2.47437 0.97765 1.95455 1.77778 1.95455H5.49333H5.81884L5.95056 1.65688C6.23074 1.02377 7.00785 0.5 8 0.5C8.99215 0.5 9.76926 1.02377 10.0494 1.65688ZM14.2222 15.0455H14.7222V14.5455V2.90909V2.40909H14.2222H12.4444H11.9444V2.90909V4.59091H4.05556V2.90909V2.40909H3.55556H1.77778H1.27778V2.90909V14.5455V15.0455H1.77778H14.2222ZM9.38889 2.18182C9.38889 1.41654 8.66654 0.954545 8 0.954545C7.33346 0.954545 6.61111 1.41654 6.61111 2.18182C6.61111 2.94709 7.33346 3.40909 8 3.40909C8.66654 3.40909 9.38889 2.9471 9.38889 2.18182Z" stroke="black"/>
</svg>
