<svg width="16" height="16" viewBox="0 0 16 16" fill="none" xmlns="http://www.w3.org/2000/svg">
<path d="M8.884 12.4082V12.4C8.884 11.8999 9.28386 11.5 9.784 11.5H11.2C13.5719 11.5 15.5 9.57186 15.5 7.2C15.5 3.55643 12.1828 0.5 8 0.5C3.86814 0.5 0.5 3.86814 0.5 8C0.5 12.1319 3.86814 15.5 8 15.5C8.39782 15.5 8.77936 15.342 9.06066 15.0607C9.34196 14.7794 9.5 14.3978 9.5 14C9.5 13.6391 9.364 13.2825 9.11137 12.9929L8.884 12.4082ZM8.884 12.4082L8.88427 12.4164M8.884 12.4082L8.88427 12.4164M8.88427 12.4164C8.89123 12.6289 8.9714 12.8325 9.11122 12.9927L8.88427 12.4164ZM10.7 7.6C10.7 8.54014 11.4599 9.3 12.4 9.3C13.3401 9.3 14.1 8.54014 14.1 7.6C14.1 6.65986 13.3401 5.9 12.4 5.9C11.4599 5.9 10.7 6.65986 10.7 7.6ZM8.3 4.4C8.3 5.34014 9.05986 6.1 10 6.1C10.9401 6.1 11.7 5.34014 11.7 4.4C11.7 3.45986 10.9401 2.7 10 2.7C9.05986 2.7 8.3 3.45986 8.3 4.4ZM3.6 5.9C2.65986 5.9 1.9 6.65986 1.9 7.6C1.9 8.54014 2.65986 9.3 3.6 9.3C4.54014 9.3 5.3 8.54014 5.3 7.6C5.3 6.65986 4.54014 5.9 3.6 5.9ZM6 6.1C6.94014 6.1 7.7 5.34014 7.7 4.4C7.7 3.45986 6.94014 2.7 6 2.7C5.05986 2.7 4.3 3.45986 4.3 4.4C4.3 5.34014 5.05986 6.1 6 6.1Z" stroke="black"/>
</svg>
