<svg width="34" height="40" viewBox="0 0 34 40" fill="none" xmlns="http://www.w3.org/2000/svg">
<path d="M6.02267 12.58C7.09477 14.8266 8.19959 16.2331 13.1593 19.0435L16.1575 20.7967L18.8226 19.0435C20.7781 17.0546 21.8542 15.9138 23.2324 13.8727C24.4173 11.7465 24.962 10.501 25.7205 8.18488C25.8202 6.00969 25.5966 5.02658 24.8911 3.53119C23.4321 1.66746 22.615 1.15993 21.1589 0.945801C19.5267 1.09965 18.9774 1.58145 18.0487 2.49703C16.3914 4.21759 15.7739 5.4392 14.7312 7.6678C13.6281 5.43334 12.9997 4.22466 11.8268 3.30901C10.5833 2.44053 9.80546 2.42229 8.51082 2.49703C6.62227 3.01577 5.85628 3.65102 4.98594 5.34095C4.78079 5.6158 4.77807 6.73442 4.98594 8.70195C5.15757 10.1145 5.46419 10.9883 5.99742 12.5081L6.02267 12.58Z" fill="#F59FAF" stroke="black"/>
<path d="M17.4748 10.9539C17.4464 13.4403 17.7011 15.1881 19.9391 19.8938L21.275 22.7871L23.4973 22.3904C25.3474 21.4698 26.3799 20.9216 27.8836 19.6996C29.2924 18.3161 30.0238 17.4398 31.224 15.6981C31.9663 13.7923 32.133 12.8125 32.157 11.1611C31.8227 8.84725 31.4679 8.03208 30.6199 7.19823C29.5464 6.61657 29.0507 6.80626 28.1812 7.21756C26.6023 8.02919 25.8326 8.85196 24.4811 10.3899C24.4862 7.90072 24.4691 6.54026 24.0183 5.20242C23.5083 3.87572 23.0253 3.51647 22.1886 3.01272C20.84 2.64512 20.1602 2.87685 19.0853 4.00796C18.8706 4.16387 18.5193 5.16537 18.0352 7.02065C17.7016 8.36245 17.6212 9.28094 17.4814 10.8783L17.4748 10.9539Z" fill="#F59FAF" stroke="black"/>
<path d="M13.6958 18.7843C10.0809 12.7038 8.87655 9.33938 11.415 3.53056C10.6843 3.03742 10.2331 2.79209 8.92687 2.75494C8.16063 2.79988 7.74997 2.90452 7.06076 3.27202C6.22957 3.7971 5.82083 4.24953 5.19465 5.34033C5.02522 5.66963 4.9884 5.90237 4.9873 6.37448C5.02175 7.79595 5.08446 8.58955 5.402 9.99402C5.84064 12 6.30416 12.9549 7.47545 14.3892C9.60436 16.4391 11.1674 17.335 13.6697 18.7693L13.6958 18.7843Z" fill="#CE8895"/>
<path d="M20.4882 20.3235C20.1617 13.2937 20.1084 9.29595 23.4948 5.17534C23.1982 4.41574 22.9966 3.99986 22.202 3.40079C21.715 3.10932 21.4288 3.02551 20.8883 3.05727C20.2108 3.16915 19.8168 3.3987 19.0886 4.10774C18.8809 4.33028 18.7853 4.52348 18.6367 4.94726C18.2127 6.23954 18.0028 6.97986 17.7588 8.37947C17.4012 10.372 17.3882 11.4309 17.6618 13.227C18.336 16.0008 19.3864 17.9363 20.4882 20.3235Z" fill="#CE8895"/>
<path d="M16.1578 20.7968C16.8183 23.1478 17.1275 24.4956 17.4903 26.9411C17.7185 28.0745 17.8138 28.6374 17.8234 29.3043C18.0956 31.3284 17.3131 31.535 16.1578 32.1401C14.2541 32.7179 13.1684 32.741 11.1608 32.1401C9.30738 31.3771 8.3617 30.8571 6.8301 29.7769C5.38196 28.5328 4.49569 28.1531 2.83253 27.8864H1.5M1.5 27.8864L4.83131 24.5779M1.5 27.8864L4.83131 32.1401" stroke="black" stroke-linecap="round"/>
<path d="M21.1545 23.1592C20.2027 23.7901 19.7924 24.2856 20.1551 26.4677C20.4701 28.0961 20.5477 29.0194 20.1551 30.7215C19.7169 31.9375 19.1733 32.3312 17.8232 32.6121C16.2733 32.8415 15.4002 32.6324 13.8256 31.1941C12.5158 29.9502 11.6227 29.3106 9.49489 28.3583C7.61358 27.8909 6.61417 27.9063 4.83105 28.3583" stroke="black" stroke-linecap="round"/>
<ellipse cx="17.2126" cy="36.8566" rx="14.7126" ry="3.14342" fill="#656565"/>
</svg>
