<svg width="16" height="16" viewBox="0 0 16 16" fill="none" xmlns="http://www.w3.org/2000/svg">
<path d="M6.79839 2.33993L6.91235 2.68182H7.27273H14.5455C15.0693 2.68182 15.5 3.11251 15.5 3.63636V14.5455C15.5 15.0693 15.0693 15.5 14.5455 15.5H8.36038L7.74707 13.6601L7.63311 13.3182H7.27273H1.45455C0.930688 13.3182 0.5 12.8875 0.5 12.3636V8.7522C1.09563 10.3055 2.60145 11.4091 4.36364 11.4091C5.53599 11.4091 6.54284 10.9947 7.25623 10.259C7.96798 9.52495 8.35455 8.50549 8.35455 7.35273C8.35455 7.22989 8.3491 7.11831 8.33954 7.0143L8.37657 7.12539L8.95111 8.84902L8.97326 8.91546L9.0128 8.97325C9.21417 9.26755 9.43799 9.55301 9.67661 9.82243L10.0471 10.2408L10.0952 10.1876L10.3255 10.4144L10.4379 10.5251L9.67869 10.9954L10.3483 12.9915L9.06411 14.5967L8.41423 15.4091H9.45455H14.1818C14.858 15.4091 15.4091 14.858 15.4091 14.1818V4C15.4091 3.32386 14.858 2.77273 14.1818 2.77273H7.60727H6.91066L7.13356 3.43271L7.51397 4.55909L7.13844 4.21377C6.41892 3.55214 5.47809 3.13636 4.36364 3.13636C2.60145 3.13636 1.09563 4.23993 0.5 5.79326V1.45455C0.5 0.930688 0.930688 0.5 1.45455 0.5H6.18508L6.79839 2.33993ZM7.52153 4.58147L8.03807 6.11091H7.76727H5.93187L6.18666 5.86577L7.14666 4.94213L7.52153 4.58147ZM5.49613 5.86843L5.75208 6.11091H4.36364H3.86364V6.61091V7.85455V8.35455H4.36364H5.81451C5.59228 8.74362 5.14294 9.10727 4.36364 9.10727C3.38349 9.10727 2.57273 8.29312 2.57273 7.27273C2.57273 6.25234 3.38349 5.43818 4.36364 5.43818C4.92818 5.43818 5.29052 5.67365 5.49613 5.86843Z" stroke="black"/>
</svg>
