<svg width="33" height="41" viewBox="0 0 33 41" fill="none" xmlns="http://www.w3.org/2000/svg">
<path d="M4.69692 31.9644C1.18683 21.7882 0.251593 15.9689 0.55354 5.35623C11.9965 1.03948 18.5049 0.748381 30.1491 1.11436C33.0422 11.9111 32.7746 17.7454 31.9248 28.1081C21.1774 31.5763 15.2404 32.0129 4.69692 31.9644Z" fill="#F59FAF" stroke="black"/>
<path d="M13.2263 2.15692C8.36749 2.72878 5.52796 3.76406 0.796116 5.62755C0.760998 15.765 1.24733 21.4139 4.9395 31.4644C7.53498 31.6134 9.18543 31.6321 12.0424 31.4644C7.5596 20.2543 7.93539 13.8298 13.2263 2.15692Z" fill="#BE7885"/>
<path d="M0.500488 11.4119L16.4821 14.1113L30.9839 5.62756" stroke="black"/>
<mask id="path-4-inside-1_501_552" fill="white">
<path d="M20.3073 10.7449C20.3946 9.52857 20.2253 8.30292 19.3544 7.79655C17.7728 6.8772 16.7924 9.70221 16.6853 11.2815C16.675 11.4344 16.6564 11.6175 16.5443 11.6901C16.247 10.9541 15.9497 10.2182 15.6524 9.48221C15.5404 9.20503 15.4249 8.92185 15.2418 8.71104C14.9085 8.32735 14.5099 8.43956 14.1127 8.64481C13.6078 8.90622 13.2298 9.48205 13.0472 10.1153C12.7778 11.0494 12.9059 12.0915 13.2679 12.9445C14.143 15.0063 16.1787 16.1773 17.5852 17.6205C17.6446 17.6814 17.7163 17.7464 17.7938 17.7237C17.8611 17.7043 17.9058 17.626 17.9433 17.5539C19.0065 15.5028 20.1291 13.2275 20.3073 10.7449Z"/>
</mask>
<path d="M20.3073 10.7449C20.3946 9.52857 20.2253 8.30292 19.3544 7.79655C17.7728 6.8772 16.7924 9.70221 16.6853 11.2815C16.675 11.4344 16.6564 11.6175 16.5443 11.6901C16.247 10.9541 15.9497 10.2182 15.6524 9.48221C15.5404 9.20503 15.4249 8.92185 15.2418 8.71104C14.9085 8.32735 14.5099 8.43956 14.1127 8.64481C13.6078 8.90622 13.2298 9.48205 13.0472 10.1153C12.7778 11.0494 12.9059 12.0915 13.2679 12.9445C14.143 15.0063 16.1787 16.1773 17.5852 17.6205C17.6446 17.6814 17.7163 17.7464 17.7938 17.7237C17.8611 17.7043 17.9058 17.626 17.9433 17.5539C19.0065 15.5028 20.1291 13.2275 20.3073 10.7449Z" fill="#FF7777"/>
<path d="M19.3544 7.79655L19.8803 6.86147L19.8804 6.86151L19.3544 7.79655ZM16.6853 11.2815L15.7334 11.3333L15.7334 11.3332L16.6853 11.2815ZM16.5443 11.6901L16.9519 12.5715L16.0469 13.1571L15.6628 12.2063L16.5443 11.6901ZM15.6524 9.48221L16.5338 8.96582L16.5339 8.96609L15.6524 9.48221ZM15.2418 8.71104L15.9714 7.94501L15.9714 7.94504L15.2418 8.71104ZM14.1127 8.64481L13.795 7.7112L13.7956 7.71085L14.1127 8.64481ZM13.0472 10.1153L13.955 10.3134L13.9549 10.3136L13.0472 10.1153ZM13.2679 12.9445L14.1431 12.413L14.1431 12.413L13.2679 12.9445ZM17.5852 17.6205L16.8879 18.4217L16.8877 18.4215L17.5852 17.6205ZM17.7938 17.7237L17.6565 16.7175L17.6593 16.7167L17.7938 17.7237ZM17.9433 17.5539L18.7602 17.9794L18.7594 17.981L17.9433 17.5539ZM19.3557 10.792C19.4396 9.62179 19.2225 8.96066 18.8285 8.73158L19.8804 6.86151C21.2281 7.64517 21.3495 9.43535 21.2589 10.6977L19.3557 10.792ZM18.8285 8.73163C18.7223 8.66985 18.6588 8.66123 18.6357 8.66024C18.617 8.65944 18.6079 8.66227 18.5951 8.66879C18.5519 8.69069 18.425 8.78627 18.2561 9.07821C17.9161 9.66609 17.6817 10.5752 17.6373 11.2299L15.7334 11.3332C15.7961 10.4086 16.1054 9.11549 16.6778 8.12587C16.9651 7.62906 17.3865 7.09206 17.9753 6.79348C18.6177 6.46771 19.2819 6.51366 19.8803 6.86147L18.8285 8.73163ZM17.6373 11.2298C17.6324 11.3011 17.6208 11.492 17.5664 11.6936C17.5137 11.8889 17.3645 12.3045 16.9519 12.5715L16.1367 10.8087C15.8362 11.0031 15.7523 11.2909 15.7396 11.3382C15.7251 11.392 15.7278 11.4148 15.7334 11.3333L17.6373 11.2298ZM15.6628 12.2063C15.3655 11.4703 15.0682 10.7344 14.7709 9.99833L16.5339 8.96609C16.8311 9.70205 17.1284 10.4379 17.4257 11.1739L15.6628 12.2063ZM14.771 9.99861C14.6483 9.69492 14.5839 9.55961 14.5121 9.47704L15.9714 7.94504C16.2659 8.28409 16.4325 8.71513 16.5338 8.96582L14.771 9.99861ZM14.5121 9.47706C14.4974 9.46008 14.5022 9.47119 14.5308 9.48391C14.5605 9.49711 14.5903 9.50072 14.6095 9.50015C14.6246 9.49969 14.62 9.49704 14.5866 9.50838C14.5523 9.52001 14.5025 9.54121 14.4298 9.57878L13.7956 7.71085C14.0335 7.58791 14.3917 7.42608 14.7929 7.414C15.2423 7.40047 15.6507 7.57588 15.9714 7.94501L14.5121 9.47706ZM14.4305 9.57843C14.2938 9.6492 14.0791 9.88286 13.955 10.3134L12.1395 9.91725C12.3806 9.08124 12.9219 8.16324 13.795 7.7112L14.4305 9.57843ZM13.9549 10.3136C13.7767 10.9311 13.8463 11.7139 14.1431 12.413L12.3928 13.4759C11.9654 12.469 11.7788 11.1677 12.1396 9.91705L13.9549 10.3136ZM14.1431 12.413C14.5059 13.2679 15.127 13.9776 15.8928 14.6825C16.2761 15.0352 16.6722 15.3665 17.0846 15.7201C17.4888 16.0667 17.9035 16.4306 18.2826 16.8195L16.8877 18.4215C16.5636 18.0889 16.1965 17.7652 15.7961 17.4219C15.4038 17.0856 14.9726 16.7247 14.5617 16.3465C13.7394 15.5896 12.905 14.6829 12.3928 13.4759L14.1431 12.413ZM18.2824 16.8194C18.3094 16.847 18.2793 16.8107 18.2178 16.7738C18.1559 16.7367 17.9504 16.6315 17.6565 16.7175L17.9312 18.7299C17.5597 18.8386 17.2796 18.7122 17.1476 18.6331C17.016 18.5542 16.9204 18.455 16.8879 18.4217L18.2824 16.8194ZM17.6593 16.7167C17.4018 16.7912 17.2459 16.9643 17.1875 17.0389C17.1342 17.1069 17.1091 17.1616 17.1272 17.1267L18.7594 17.981C18.7401 18.0182 18.6738 18.1482 18.572 18.2782C18.465 18.4148 18.2532 18.6368 17.9284 18.7307L17.6593 16.7167ZM17.1264 17.1283C18.197 15.0629 19.1973 12.9976 19.3557 10.792L21.2589 10.6978C21.0608 13.4574 19.816 15.9426 18.7602 17.9794L17.1264 17.1283Z" fill="black" mask="url(#path-4-inside-1_501_552)"/>
<ellipse cx="17.5005" cy="37.129" rx="15" ry="3.87097" fill="#656565"/>
<path d="M8.8833 26.7812C8.8833 26.6081 8.88786 26.3392 8.89697 25.9746C8.9152 25.6009 8.92887 25.1816 8.93799 24.7168C8.95622 24.252 8.97445 23.7643 8.99268 23.2539C9.0109 22.7435 9.02458 22.2559 9.03369 21.791C9.05192 21.3262 9.06559 20.9115 9.07471 20.5469C9.08382 20.1823 9.09294 19.9089 9.10205 19.7266C9.08382 19.526 9.12028 19.3984 9.21143 19.3438C9.30257 19.2891 9.40283 19.2617 9.51221 19.2617C9.6307 19.2617 9.73096 19.2708 9.81299 19.2891C9.90413 19.3073 9.96794 19.3802 10.0044 19.5078L9.78564 26.5352C9.76742 26.6992 9.63981 26.8177 9.40283 26.8906C9.16585 26.9544 8.99268 26.918 8.8833 26.7812ZM17.647 24.7168C17.9478 24.7168 18.0981 24.8307 18.0981 25.0586C18.0981 25.2865 17.9979 25.4551 17.7974 25.5645C17.5968 25.6647 17.369 25.7376 17.1138 25.7832C16.8677 25.8288 16.6353 25.8561 16.4165 25.8652C16.1978 25.8652 16.0565 25.8743 15.9927 25.8926C15.938 25.9017 15.8058 25.9382 15.5962 26.002C15.3957 26.0566 15.1541 26.125 14.8716 26.207C14.589 26.2799 14.2837 26.362 13.9556 26.4531C12.9256 26.7266 12.1053 26.8633 11.4946 26.8633C11.1847 26.8633 10.9751 26.8177 10.8657 26.7266C10.7655 26.6263 10.7472 26.4896 10.811 26.3164C11.4946 25.7148 12.2056 24.9401 12.9438 23.9922C14.0467 22.5794 14.5981 21.4766 14.5981 20.6836C14.5981 20.5286 14.5754 20.3828 14.5298 20.2461C14.4295 19.9635 14.1698 19.7812 13.7505 19.6992C13.3494 19.6992 13.0213 19.7812 12.7661 19.9453C12.5109 20.1094 12.2694 20.2917 12.0415 20.4922C11.8228 20.6927 11.5949 20.875 11.3579 21.0391C11.13 21.2031 10.8475 21.2852 10.5103 21.2852C10.5194 20.9844 10.6424 20.6927 10.8794 20.4102C11.3534 19.8268 12.0233 19.4076 12.8892 19.1523C13.1991 19.0521 13.4451 19.002 13.6274 19.002C13.8097 19.002 13.9465 19.0065 14.0376 19.0156C14.3931 19.0521 14.6984 19.1797 14.9536 19.3984C15.2088 19.6172 15.3592 19.9544 15.4048 20.4102C15.4048 21.6953 14.8032 23.1217 13.6001 24.6895C13.272 25.1178 12.9484 25.5143 12.6294 25.8789C12.7297 25.888 12.8846 25.8926 13.0942 25.8926C13.313 25.8926 13.6092 25.8424 13.9829 25.7422C14.3566 25.6328 14.7531 25.5052 15.1724 25.3594C15.5916 25.2044 16.0063 25.0586 16.4165 24.9219C16.8267 24.7852 17.2368 24.7168 17.647 24.7168ZM24.8931 20.0684C24.8931 20.6152 24.4556 21.2578 23.5806 21.9961C23.3618 22.1693 23.175 22.3242 23.02 22.4609C24.1411 22.4792 24.811 22.7435 25.0298 23.2539C25.0754 23.3724 25.0981 23.4954 25.0981 23.623C25.0981 23.7507 25.0617 23.9238 24.9888 24.1426C24.925 24.3522 24.7837 24.6029 24.5649 24.8945C24.3462 25.1862 24.0819 25.4688 23.772 25.7422C23.1248 26.3073 22.4412 26.6992 21.7212 26.918C21.4751 26.9909 21.2746 27.0273 21.1196 27.0273C20.9738 27.0273 20.8553 27.0228 20.7642 27.0137C20.673 27.0137 20.5773 26.9863 20.4771 26.9316C20.3768 26.877 20.3267 26.7858 20.3267 26.6582C21.0103 26.485 21.6118 26.2389 22.1313 25.9199C22.6509 25.6009 23.061 25.2682 23.3618 24.9219C23.7173 24.4935 23.895 24.138 23.895 23.8555C23.895 23.5729 23.8084 23.3815 23.6353 23.2812C23.4621 23.181 23.2388 23.1309 22.9653 23.1309C22.2726 23.1309 21.3293 23.4134 20.1353 23.9785L19.6567 23.3633C22.4185 22.0872 23.7993 21.1712 23.7993 20.6152C23.7993 20.3783 23.5396 20.2233 23.02 20.1504C22.4823 20.1504 21.867 20.2415 21.1743 20.4238C20.4907 20.6061 19.9621 20.7383 19.5884 20.8203C19.2147 20.9023 18.8319 20.9434 18.4399 20.9434C18.4399 20.515 18.5448 20.2643 18.7544 20.1914C19.1372 20.1003 19.5428 20 19.9712 19.8906C21.3748 19.5352 22.4959 19.3574 23.3345 19.3574C24.1821 19.3574 24.7017 19.5944 24.8931 20.0684Z" fill="white"/>
<path d="M8.8833 26.7812H7.8833V27.132L8.10243 27.4059L8.8833 26.7812ZM8.89697 25.9746L7.89816 25.9259L7.89758 25.9377L7.89728 25.9496L8.89697 25.9746ZM8.93799 24.7168L7.93876 24.6776L7.93837 24.6874L7.93818 24.6972L8.93799 24.7168ZM9.03369 21.791L8.03446 21.7518L8.03408 21.7616L8.03388 21.7714L9.03369 21.791ZM9.10205 19.7266L10.1008 19.7765L10.1043 19.7062L10.0979 19.636L9.10205 19.7266ZM9.81299 19.2891L9.59606 20.2652L9.60644 20.2676L9.61687 20.2696L9.81299 19.2891ZM10.0044 19.5078L11.0039 19.5389L11.0088 19.383L10.9659 19.2331L10.0044 19.5078ZM9.78564 26.5352L10.7795 26.6456L10.7839 26.606L10.7852 26.5663L9.78564 26.5352ZM9.40283 26.8906L9.66281 27.8562L9.67995 27.8516L9.69692 27.8464L9.40283 26.8906ZM9.8833 26.7812C9.8833 26.6213 9.88758 26.3628 9.89666 25.9996L7.89728 25.9496C7.88814 26.3155 7.8833 26.5949 7.8833 26.7812H9.8833ZM9.89578 26.0233C9.91458 25.6379 9.92853 25.2087 9.9378 24.7364L7.93818 24.6972C7.92921 25.1545 7.91582 25.5639 7.89816 25.9259L9.89578 26.0233ZM9.93722 24.756C9.9555 24.2899 9.97377 23.8011 9.99204 23.2896L7.99331 23.2182C7.97512 23.7276 7.95694 24.214 7.93876 24.6776L9.93722 24.756ZM9.99204 23.2896C10.0104 22.7743 10.0243 22.2813 10.0335 21.8106L8.03388 21.7714C8.02488 22.2304 8.01137 22.7126 7.99331 23.2182L9.99204 23.2896ZM10.0329 21.8302C10.0513 21.3618 10.0651 20.9423 10.0744 20.5719L8.07502 20.5219C8.06605 20.8807 8.05255 21.2905 8.03446 21.7518L10.0329 21.8302ZM10.0744 20.5719C10.0835 20.2091 10.0923 19.9459 10.1008 19.7765L8.1033 19.6766C8.09354 19.8718 8.08418 20.1554 8.07502 20.5219L10.0744 20.5719ZM10.0979 19.636C10.0948 19.6015 10.1057 19.6556 10.0772 19.7552C10.0439 19.8719 9.94852 20.0677 9.72592 20.2012L8.69693 18.4863C8.05903 18.869 8.08447 19.5785 8.10616 19.8171L10.0979 19.636ZM9.72592 20.2012C9.69481 20.2199 9.65828 20.236 9.6181 20.247C9.57809 20.2579 9.54174 20.2617 9.51221 20.2617V18.2617C9.2271 18.2617 8.94815 18.3355 8.69693 18.4863L9.72592 20.2012ZM9.51221 20.2617C9.54635 20.2617 9.57041 20.2631 9.58573 20.2644C9.60138 20.2659 9.6039 20.267 9.59606 20.2652L10.0299 18.3129C9.85429 18.2738 9.67648 18.2617 9.51221 18.2617V20.2617ZM9.61687 20.2696C9.43694 20.2337 9.2831 20.1376 9.17662 20.0159C9.08247 19.9083 9.05102 19.8111 9.04287 19.7825L10.9659 19.2331C10.8764 18.9199 10.6166 18.43 10.0091 18.3085L9.61687 20.2696ZM9.00488 19.4767L8.78613 26.504L10.7852 26.5663L11.0039 19.5389L9.00488 19.4767ZM8.79176 26.4247C8.81067 26.2546 8.89439 26.1085 8.99582 26.0143C9.07894 25.9371 9.14014 25.9252 9.10875 25.9348L9.69692 27.8464C10.0958 27.7237 10.6966 27.392 10.7795 26.6456L8.79176 26.4247ZM9.14286 25.925C9.12097 25.9309 9.18578 25.9083 9.30123 25.9326C9.43881 25.9615 9.57235 26.0418 9.66417 26.1566L8.10243 27.4059C8.55944 27.9772 9.22336 27.9746 9.66281 27.8562L9.14286 25.925ZM17.7974 25.5645L18.2446 26.4589L18.2605 26.4509L18.2762 26.4423L17.7974 25.5645ZM17.1138 25.7832L16.938 24.7988L16.9317 24.7999L17.1138 25.7832ZM16.4165 25.8652V26.8652H16.4373L16.4581 26.8644L16.4165 25.8652ZM15.9927 25.8926L16.1571 26.879L16.2129 26.8697L16.2674 26.8541L15.9927 25.8926ZM15.5962 26.002L15.8593 26.9667L15.8734 26.9629L15.8874 26.9586L15.5962 26.002ZM14.8716 26.207L15.1215 27.1753L15.136 27.1716L15.1504 27.1674L14.8716 26.207ZM13.9556 26.4531L14.2122 27.4197L14.2232 27.4166L13.9556 26.4531ZM10.8657 26.7266L10.1586 27.4337L10.1907 27.4657L10.2255 27.4948L10.8657 26.7266ZM10.811 26.3164L10.1504 25.5657L9.96026 25.733L9.87269 25.9707L10.811 26.3164ZM12.9438 23.9922L12.1556 23.3768L12.1549 23.3777L12.9438 23.9922ZM14.5298 20.2461L15.4785 19.9299L15.4754 19.9207L15.4722 19.9117L14.5298 20.2461ZM13.7505 19.6992L13.9425 18.7178L13.8474 18.6992H13.7505V19.6992ZM12.0415 20.4922L11.3809 19.7415L11.3733 19.7482L11.3658 19.755L12.0415 20.4922ZM11.3579 21.0391L10.7887 20.2169L10.7811 20.2221L10.7736 20.2275L11.3579 21.0391ZM10.5103 21.2852L9.51071 21.2549L9.47949 22.2852H10.5103V21.2852ZM10.8794 20.4102L11.6456 21.0528L11.6506 21.0468L11.6555 21.0407L10.8794 20.4102ZM12.8892 19.1523L13.1719 20.1115L13.1845 20.1078L13.197 20.1038L12.8892 19.1523ZM14.0376 19.0156L14.1396 18.0208L14.1371 18.0206L14.0376 19.0156ZM15.4048 20.4102H16.4048V20.3603L16.3998 20.3107L15.4048 20.4102ZM13.6001 24.6895L12.8068 24.0806L12.8062 24.0814L13.6001 24.6895ZM12.6294 25.8789L11.8768 25.2204L10.5847 26.6971L12.5389 26.8748L12.6294 25.8789ZM13.9829 25.7422L14.242 26.708L14.253 26.7051L14.2638 26.7019L13.9829 25.7422ZM15.1724 25.3594L15.5009 26.3039L15.51 26.3007L15.519 26.2974L15.1724 25.3594ZM17.647 25.7168C17.6996 25.7168 17.5563 25.7318 17.3815 25.5993C17.2849 25.5262 17.2051 25.4266 17.1546 25.3118C17.1067 25.2029 17.0981 25.1104 17.0981 25.0586H19.0981C19.0981 24.7044 18.9668 24.2912 18.5892 24.0052C18.264 23.7588 17.8951 23.7168 17.647 23.7168V25.7168ZM17.0981 25.0586C17.0981 25.0221 17.1076 24.9387 17.1634 24.8449C17.2191 24.7512 17.2875 24.7035 17.3185 24.6866L18.2762 26.4423C18.5078 26.316 18.7265 26.1293 18.8825 25.867C19.0385 25.6046 19.0981 25.323 19.0981 25.0586H17.0981ZM17.3502 24.67C17.2475 24.7214 17.1133 24.7675 16.938 24.7988L17.2896 26.7676C17.6247 26.7078 17.9462 26.6081 18.2446 26.4589L17.3502 24.67ZM16.9317 24.7999C16.7255 24.8381 16.5404 24.8592 16.3749 24.8661L16.4581 26.8644C16.7301 26.853 17.0098 26.8195 17.2959 26.7665L16.9317 24.7999ZM16.4165 24.8652C16.2958 24.8652 16.1824 24.8677 16.0821 24.8741C16.0016 24.8793 15.8595 24.8906 15.718 24.9311L16.2674 26.8541C16.2404 26.8618 16.2198 26.8661 16.2086 26.8683C16.1968 26.8705 16.1893 26.8716 16.1872 26.8718C16.1839 26.8723 16.1906 26.8713 16.2109 26.87C16.2519 26.8674 16.3184 26.8652 16.4165 26.8652V24.8652ZM15.8283 24.9062C15.6948 24.9284 15.4917 24.9885 15.305 25.0453L15.8874 26.9586C15.9881 26.928 16.0643 26.9057 16.1185 26.8908C16.1456 26.8833 16.1635 26.8786 16.1741 26.8761C16.1881 26.8726 16.1791 26.8753 16.1571 26.879L15.8283 24.9062ZM15.3331 25.0372C15.1257 25.0938 14.8786 25.1637 14.5928 25.2467L15.1504 27.1674C15.4297 27.0863 15.6657 27.0195 15.8593 26.9667L15.3331 25.0372ZM14.6217 25.2388C14.3323 25.3134 14.021 25.3971 13.6879 25.4896L14.2232 27.4166C14.5464 27.3269 14.8457 27.2465 15.1215 27.1753L14.6217 25.2388ZM13.699 25.4866C12.7005 25.7517 11.9776 25.8633 11.4946 25.8633V27.8633C12.2331 27.8633 13.1507 27.7014 14.2122 27.4196L13.699 25.4866ZM11.4946 25.8633C11.4411 25.8633 11.3995 25.8613 11.3684 25.8586C11.3369 25.8558 11.3209 25.8527 11.3174 25.8519C11.3133 25.851 11.33 25.8542 11.3605 25.8672C11.3908 25.8802 11.4447 25.9074 11.5059 25.9583L10.2255 27.4948C10.4508 27.6825 10.7035 27.7652 10.8926 27.8063C11.0904 27.8493 11.2968 27.8633 11.4946 27.8633V25.8633ZM11.5728 26.0195C11.6733 26.1199 11.7473 26.2609 11.7681 26.4167C11.7865 26.5547 11.7555 26.6455 11.7494 26.6621L9.87269 25.9707C9.72276 26.3777 9.69514 26.9702 10.1586 27.4337L11.5728 26.0195ZM11.4717 27.0671C12.2143 26.4136 12.9675 25.5893 13.7328 24.6067L12.1549 23.3777C11.4437 24.2909 10.7749 25.0161 10.1504 25.5657L11.4717 27.0671ZM13.7321 24.6075C14.3078 23.8701 14.7635 23.1836 15.079 22.5527C15.3894 21.932 15.5981 21.2979 15.5981 20.6836H13.5981C13.5981 20.8623 13.5312 21.1761 13.2901 21.6583C13.0542 22.1302 12.6828 22.7015 12.1556 23.3768L13.7321 24.6075ZM15.5981 20.6836C15.5981 20.4292 15.5605 20.1759 15.4785 19.9299L13.5811 20.5623C13.5902 20.5897 13.5981 20.628 13.5981 20.6836H15.5981ZM15.4722 19.9117C15.2072 19.1647 14.5458 18.8359 13.9425 18.7178L13.5585 20.6806C13.6147 20.6916 13.6512 20.7032 13.6723 20.7114C13.6931 20.7195 13.695 20.7228 13.6853 20.716C13.6748 20.7086 13.6551 20.6924 13.6341 20.6653C13.6127 20.6378 13.5971 20.608 13.5874 20.5805L15.4722 19.9117ZM13.7505 18.6992C13.2181 18.6992 12.6861 18.8079 12.2254 19.1041L13.3069 20.7865C13.3565 20.7546 13.4808 20.6992 13.7505 20.6992V18.6992ZM12.2254 19.1041C11.928 19.2953 11.6464 19.5079 11.3809 19.7415L12.7021 21.2429C12.8924 21.0755 13.0938 20.9234 13.3069 20.7865L12.2254 19.1041ZM11.3658 19.755C11.1796 19.9257 10.9872 20.0794 10.7887 20.2169L11.9271 21.8613C12.2026 21.6706 12.4659 21.4597 12.7172 21.2293L11.3658 19.755ZM10.7736 20.2275C10.7479 20.246 10.6809 20.2852 10.5103 20.2852V22.2852C11.0141 22.2852 11.5122 22.1602 11.9422 21.8506L10.7736 20.2275ZM11.5098 21.3154C11.5107 21.2862 11.5195 21.2031 11.6456 21.0528L10.1132 19.7675C9.76533 20.1823 9.52806 20.6825 9.51071 21.2549L11.5098 21.3154ZM11.6555 21.0407C11.9782 20.6436 12.4602 20.3213 13.1719 20.1115L12.6064 18.1931C11.5863 18.4938 10.7285 19.01 10.1033 19.7796L11.6555 21.0407ZM13.197 20.1038C13.3262 20.062 13.4281 20.0352 13.5058 20.0194C13.544 20.0116 13.5735 20.0071 13.595 20.0046C13.6056 20.0033 13.6136 20.0027 13.6192 20.0023C13.6248 20.002 13.6275 20.002 13.6274 20.002V18.002C13.2891 18.002 12.9255 18.0896 12.5813 18.2009L13.197 20.1038ZM13.6274 20.002C13.8022 20.002 13.8983 20.0067 13.9381 20.0107L14.1371 18.0206C13.9946 18.0063 13.8173 18.002 13.6274 18.002V20.002ZM13.9356 20.0104C14.1019 20.0275 14.2123 20.0801 14.3028 20.1577L15.6044 18.6392C15.1845 18.2793 14.6842 18.0767 14.1396 18.0208L13.9356 20.0104ZM14.3028 20.1577C14.3072 20.1615 14.3236 20.1759 14.3445 20.2227C14.3672 20.2736 14.3951 20.3636 14.4097 20.5097L16.3998 20.3107C16.3381 19.6934 16.1168 19.0784 15.6044 18.6392L14.3028 20.1577ZM14.4048 20.4102C14.4048 21.3848 13.9439 22.599 12.8068 24.0806L14.3934 25.2983C15.6626 23.6445 16.4048 22.0058 16.4048 20.4102H14.4048ZM12.8062 24.0814C12.4898 24.4944 12.18 24.8739 11.8768 25.2204L13.382 26.5374C13.7168 26.1548 14.0541 25.7413 14.394 25.2975L12.8062 24.0814ZM12.5389 26.8748C12.6867 26.8882 12.8794 26.8926 13.0942 26.8926V24.8926C12.8898 24.8926 12.7726 24.8878 12.7199 24.883L12.5389 26.8748ZM13.0942 26.8926C13.4428 26.8926 13.8379 26.8164 14.242 26.708L13.7238 24.7763C13.3805 24.8684 13.1831 24.8926 13.0942 24.8926V26.8926ZM14.2638 26.7019C14.6555 26.5873 15.068 26.4544 15.5009 26.3039L14.8438 24.4149C14.4382 24.556 14.0577 24.6784 13.702 24.7824L14.2638 26.7019ZM15.519 26.2974C15.9285 26.146 16.3331 26.0038 16.7327 25.8706L16.1003 23.9732C15.6796 24.1134 15.2547 24.2628 14.8257 24.4214L15.519 26.2974ZM16.7327 25.8706C17.0465 25.766 17.35 25.7168 17.647 25.7168V23.7168C17.1236 23.7168 16.6069 23.8043 16.1003 23.9732L16.7327 25.8706ZM24.8931 20.0684H25.8931V19.8741L25.8203 19.6939L24.8931 20.0684ZM23.5806 21.9961L24.2013 22.7801L24.2135 22.7705L24.2254 22.7604L23.5806 21.9961ZM23.02 22.4609L22.3584 21.7111L20.423 23.4188L23.0038 23.4608L23.02 22.4609ZM25.0298 23.2539L25.9631 22.8949L25.9564 22.8773L25.9489 22.86L25.0298 23.2539ZM24.9888 24.1426L24.0401 23.8264L24.0359 23.8388L24.0321 23.8514L24.9888 24.1426ZM23.772 25.7422L24.4297 26.4954L24.4336 26.492L23.772 25.7422ZM21.7212 26.918L22.0053 27.8768L22.0119 27.8748L21.7212 26.918ZM20.7642 27.0137L20.8637 26.0186L20.814 26.0137H20.7642V27.0137ZM20.3267 26.6582L20.0811 25.6888L19.3267 25.8799V26.6582H20.3267ZM22.1313 25.9199L21.6081 25.0678L22.1313 25.9199ZM23.3618 24.9219L24.1168 25.5776L24.1242 25.5691L24.1314 25.5604L23.3618 24.9219ZM20.1353 23.9785L19.3459 24.5925L19.8382 25.2254L20.563 24.8824L20.1353 23.9785ZM19.6567 23.3633L19.2373 22.4555L18.0945 22.9835L18.8674 23.9772L19.6567 23.3633ZM23.02 20.1504L23.159 19.1601L23.0899 19.1504H23.02V20.1504ZM21.1743 20.4238L20.9198 19.4567L20.9167 19.4576L21.1743 20.4238ZM18.4399 20.9434H17.4399V21.9434H18.4399V20.9434ZM18.7544 20.1914L18.5228 19.2186L18.4736 19.2303L18.4259 19.2469L18.7544 20.1914ZM19.9712 19.8906L19.7257 18.9212L19.7238 18.9217L19.9712 19.8906ZM23.8931 20.0684C23.8931 20.0728 23.8898 20.1752 23.7383 20.3977C23.5887 20.6175 23.3332 20.8964 22.9357 21.2318L24.2254 22.7604C24.7029 22.3575 25.1037 21.946 25.3915 21.5232C25.6776 21.1031 25.8931 20.6108 25.8931 20.0684H23.8931ZM22.9599 21.212C22.7316 21.3927 22.5304 21.5594 22.3584 21.7111L23.6816 23.2108C23.8196 23.0891 23.992 22.9458 24.2013 22.7801L22.9599 21.212ZM23.0038 23.4608C23.5036 23.4689 23.8175 23.5325 23.9963 23.6031C24.16 23.6677 24.135 23.7047 24.1106 23.6478L25.9489 22.86C25.7058 22.2927 25.2365 21.9424 24.7303 21.7426C24.2391 21.5488 23.6576 21.4712 23.0363 21.4611L23.0038 23.4608ZM24.0964 23.6129C24.0975 23.6157 24.0977 23.6169 24.0978 23.6171C24.0978 23.6174 24.0981 23.6191 24.0981 23.623H26.0981C26.0981 23.3734 26.053 23.1286 25.9631 22.8949L24.0964 23.6129ZM24.0981 23.623C24.0981 23.5968 24.1013 23.5998 24.0923 23.6426C24.0838 23.6827 24.0679 23.743 24.0401 23.8264L25.9375 24.4588C26.0216 24.2064 26.0981 23.912 26.0981 23.623H24.0981ZM24.0321 23.8514C24.0173 23.9002 23.9539 24.0426 23.7649 24.2945L25.3649 25.4945C25.6135 25.1631 25.8327 24.8043 25.9454 24.4337L24.0321 23.8514ZM23.7649 24.2945C23.5921 24.525 23.3758 24.7581 23.1104 24.9923L24.4336 26.492C24.788 26.1794 25.1003 25.8474 25.3649 25.4945L23.7649 24.2945ZM23.1142 24.989C22.5586 25.4741 21.9973 25.789 21.4305 25.9611L22.0119 27.8748C22.8852 27.6095 23.6911 27.1404 24.4297 26.4954L23.1142 24.989ZM21.4371 25.9592C21.3402 25.9879 21.2644 26.0058 21.2073 26.0161C21.1792 26.0212 21.1578 26.0241 21.1424 26.0257C21.1268 26.0273 21.1196 26.0273 21.1196 26.0273V28.0273C21.4131 28.0273 21.7189 27.9616 22.0053 27.8768L21.4371 25.9592ZM21.1196 26.0273C20.9901 26.0273 20.9083 26.0231 20.8637 26.0186L20.6647 28.0087C20.8023 28.0225 20.9575 28.0273 21.1196 28.0273V26.0273ZM20.7642 26.0137C20.8775 26.0137 20.9458 26.0482 20.9559 26.0537L19.9982 27.8095C20.2088 27.9244 20.4685 28.0137 20.7642 28.0137V26.0137ZM20.9559 26.0537C21.0563 26.1085 21.1647 26.2025 21.2405 26.3403C21.3131 26.4723 21.3267 26.5913 21.3267 26.6582H19.3267C19.3267 27.0994 19.5332 27.5559 19.9982 27.8095L20.9559 26.0537ZM20.5722 27.6276C21.3388 27.4334 22.0367 27.1515 22.6546 26.7721L21.6081 25.0678C21.1869 25.3264 20.6817 25.5367 20.0811 25.6888L20.5722 27.6276ZM22.6546 26.7721C23.2342 26.4162 23.7314 26.0214 24.1168 25.5776L22.6068 24.2662C22.3906 24.5151 22.0675 24.7856 21.6081 25.0678L22.6546 26.7721ZM24.1314 25.5604C24.5126 25.1011 24.895 24.5102 24.895 23.8555H22.895C22.895 23.7915 22.9132 23.7949 22.8673 23.8868C22.8232 23.975 22.739 24.1064 22.5923 24.2833L24.1314 25.5604ZM24.895 23.8555C24.895 23.3798 24.7377 22.764 24.1363 22.4158L23.1342 24.1467C23.0878 24.1198 23.0421 24.0835 23.0021 24.0386C22.9625 23.9941 22.9359 23.9495 22.919 23.9122C22.8872 23.8419 22.895 23.8099 22.895 23.8555H24.895ZM24.1363 22.4158C23.765 22.2009 23.3529 22.1309 22.9653 22.1309V24.1309C23.1246 24.1309 23.1591 24.1611 23.1342 24.1467L24.1363 22.4158ZM22.9653 22.1309C22.044 22.1309 20.9354 22.4935 19.7075 23.0746L20.563 24.8824C21.7232 24.3333 22.5013 24.1309 22.9653 24.1309V22.1309ZM20.9246 23.3646L20.4461 22.7493L18.8674 23.9772L19.3459 24.5925L20.9246 23.3646ZM20.0762 24.2711C21.4719 23.6262 22.5621 23.053 23.3165 22.5526C23.6906 22.3043 24.0214 22.0486 24.2697 21.7839C24.4885 21.5507 24.7993 21.148 24.7993 20.6152H22.7993C22.7993 20.3604 22.9375 20.2807 22.8111 20.4156C22.7142 20.5189 22.5271 20.6761 22.2109 20.8859C21.5844 21.3015 20.6033 21.8243 19.2373 22.4555L20.0762 24.2711ZM24.7993 20.6152C24.7993 20.0455 24.4531 19.6631 24.1168 19.4625C23.8177 19.2841 23.468 19.2035 23.159 19.1601L22.881 21.1407C22.9761 21.154 23.0405 21.1686 23.0803 21.1803C23.1223 21.1925 23.1198 21.1966 23.0922 21.1801C23.0641 21.1633 22.9876 21.1117 22.9171 21.0053C22.8401 20.8891 22.7993 20.7508 22.7993 20.6152H24.7993ZM23.02 19.1504C22.3734 19.1504 21.6699 19.2594 20.9198 19.4568L21.4288 21.3909C22.0641 21.2237 22.5911 21.1504 23.02 21.1504V19.1504ZM20.9167 19.4576C20.2376 19.6387 19.7258 19.7663 19.374 19.8436L19.8028 21.7971C20.1983 21.7102 20.7439 21.5736 21.432 21.3901L20.9167 19.4576ZM19.374 19.8436C19.0724 19.9098 18.7615 19.9434 18.4399 19.9434V21.9434C18.9022 21.9434 19.357 21.8949 19.8028 21.7971L19.374 19.8436ZM19.4399 20.9434C19.4399 20.8754 19.4442 20.8318 19.4479 20.808C19.4517 20.7832 19.4532 20.7911 19.4411 20.8199C19.4286 20.8499 19.3979 20.9106 19.334 20.9764C19.2666 21.0457 19.18 21.1021 19.0829 21.1359L18.4259 19.2469C17.9938 19.3972 17.7314 19.7244 17.596 20.0483C17.4716 20.3458 17.4399 20.6646 17.4399 20.9434H19.4399ZM18.986 21.1642C19.3747 21.0717 19.7856 20.9701 20.2186 20.8595L19.7238 18.9217C19.3 19.0299 18.8997 19.1288 18.5228 19.2186L18.986 21.1642ZM20.2167 20.86C21.5891 20.5125 22.6174 20.3574 23.3345 20.3574V18.3574C22.3745 18.3574 21.1606 18.5578 19.7257 18.9212L20.2167 20.86ZM23.3345 20.3574C23.6785 20.3574 23.8628 20.4075 23.9449 20.445C23.9807 20.4613 23.9872 20.4707 23.9809 20.4644C23.9732 20.4567 23.9674 20.4467 23.9658 20.4428L25.8203 19.6939C25.3892 18.6264 24.2922 18.3574 23.3345 18.3574V20.3574Z" fill="black"/>
</svg>
