<svg width="16" height="4" viewBox="0 0 16 4" fill="none" xmlns="http://www.w3.org/2000/svg">
<path d="M2 0.666687C0.9 0.666687 0 1.41669 0 2.33335C0 3.25002 0.9 4.00002 2 4.00002C3.1 4.00002 4 3.25002 4 2.33335C4 1.41669 3.1 0.666687 2 0.666687ZM14 0.666687C12.9 0.666687 12 1.41669 12 2.33335C12 3.25002 12.9 4.00002 14 4.00002C15.1 4.00002 16 3.25002 16 2.33335C16 1.41669 15.1 0.666687 14 0.666687ZM8 0.666687C6.9 0.666687 6 1.41669 6 2.33335C6 3.25002 6.9 4.00002 8 4.00002C9.1 4.00002 10 3.25002 10 2.33335C10 1.41669 9.1 0.666687 8 0.666687Z" fill="black"/>
</svg>
