<svg width="33" height="37" viewBox="0 0 33 37" fill="none" xmlns="http://www.w3.org/2000/svg">
<rect x="5.74414" y="2.62286" width="5.93086" height="1.23463" rx="0.617314" fill="#4F4F4F" stroke="black"/>
<path d="M0.854771 7.84908C1.58534 5.81185 2.30886 5.14646 3.85814 4.35747C13.5117 3.68253 18.9242 3.35553 28.5782 4.35747C30.5164 5.34696 31.5003 6.26155 31.9281 7.84908C32.7391 14.8305 32.6406 18.7446 31.9281 25.7261C30.9844 27.6395 30.374 28.6377 28.5782 29.7764C19.0839 30.2226 14.0409 31.2598 3.85814 29.7764L3.82948 29.7515C2.69538 28.767 2.04984 28.2066 0.854771 25.7261C0.419031 18.7446 0.345868 14.8306 0.854771 7.84908Z" fill="#F59FAF" stroke="black"/>
<path d="M4.51803 10.7821C2.90442 10.5972 2.11289 10.6006 0.739066 10.6424C0.400426 16.4311 0.455371 19.7351 1.08561 25.7524C1.75437 27.3578 2.12804 28.1161 3.39589 29.2177C4.02829 29.7953 4.99151 29.9293 6.97684 30.0557C7.21673 23.4907 7.30443 19.7999 7.09235 13.1385C6.28714 12.1164 5.81837 11.5521 4.51803 10.7821Z" fill="#F27C98" stroke="black"/>
<path d="M12.1695 3.55418C10.7204 8.16679 10.6546 10.9441 10.0352 15.7692L23.0352 15.4852C22.5021 10.7319 22.3855 8.01014 20.9008 3.55418C20.367 2.59973 20.0342 2.07659 19.0575 1.28162C17.1954 0.966636 16.1372 0.850113 14.1098 1.28162C13.3294 1.96865 12.8974 2.39427 12.1695 3.55418Z" fill="#EEE085" stroke="black"/>
<path d="M23.9199 16.6479C23.9199 21.7099 20.5423 25.6451 16.5649 25.6451C12.5875 25.6451 9.20996 21.71 9.20996 16.6479C9.20996 11.5859 12.5875 7.65076 16.5649 7.65076C20.5423 7.65076 23.9199 11.5859 23.9199 16.6479Z" fill="#EDE9C3" stroke="black"/>
<path d="M22.7649 16.648C22.7649 20.9386 19.9045 24.2485 16.5651 24.2485C13.2256 24.2485 10.3652 20.9386 10.3652 16.648C10.3652 12.3573 13.2256 9.04742 16.5651 9.04742C19.9045 9.04742 22.7649 12.3573 22.7649 16.648Z" fill="#9CD8EA" stroke="black"/>
<mask id="path-7-inside-1_501_538" fill="white">
<path d="M20.6091 16.2036C21.0415 15.3948 21.1854 14.5076 20.3358 13.916C18.7927 12.8419 16.9055 14.5019 16.351 15.5538C16.2973 15.6556 16.2261 15.7759 16.0789 15.7941C15.9432 15.2063 15.8075 14.6187 15.6719 14.0309C15.6207 13.8095 15.5672 13.5831 15.4172 13.3872C15.1441 13.0307 14.6609 12.9956 14.1538 13.0247C13.5091 13.0619 12.9222 13.3503 12.5414 13.7328C11.9795 14.2971 11.8392 15.047 12.0163 15.733C12.4444 17.3915 14.4339 18.7656 15.6346 20.1494C15.6854 20.2078 15.749 20.2725 15.8432 20.2787C15.9249 20.2843 15.997 20.2433 16.0594 20.2044C17.8284 19.0978 19.7263 17.8544 20.6091 16.2036Z"/>
</mask>
<path d="M20.6091 16.2036C21.0415 15.3948 21.1854 14.5076 20.3358 13.916C18.7927 12.8419 16.9055 14.5019 16.351 15.5538C16.2973 15.6556 16.2261 15.7759 16.0789 15.7941C15.9432 15.2063 15.8075 14.6187 15.6719 14.0309C15.6207 13.8095 15.5672 13.5831 15.4172 13.3872C15.1441 13.0307 14.6609 12.9956 14.1538 13.0247C13.5091 13.0619 12.9222 13.3503 12.5414 13.7328C11.9795 14.2971 11.8392 15.047 12.0163 15.733C12.4444 17.3915 14.4339 18.7656 15.6346 20.1494C15.6854 20.2078 15.749 20.2725 15.8432 20.2787C15.9249 20.2843 15.997 20.2433 16.0594 20.2044C17.8284 19.0978 19.7263 17.8544 20.6091 16.2036Z" fill="#FF7777"/>
<path d="M20.3358 13.916L20.9071 13.0953L20.9071 13.0953L20.3358 13.916ZM16.351 15.5538L15.4663 15.0876L15.4664 15.0875L16.351 15.5538ZM16.0789 15.7941L16.2017 16.7865L15.3073 16.8972L15.1045 16.0191L16.0789 15.7941ZM15.6719 14.0309L16.6462 13.8056L16.6463 13.8061L15.6719 14.0309ZM15.4172 13.3872L16.211 12.7791L16.211 12.7791L15.4172 13.3872ZM14.1538 13.0247L14.0962 12.0264L14.0966 12.0263L14.1538 13.0247ZM12.5414 13.7328L13.2501 14.4383L13.25 14.4385L12.5414 13.7328ZM12.0163 15.733L12.9846 15.4831L12.9846 15.4832L12.0163 15.733ZM15.6346 20.1494L14.8796 20.8051L14.8793 20.8048L15.6346 20.1494ZM15.8432 20.2787L15.9093 19.2809L15.9112 19.281L15.8432 20.2787ZM16.0594 20.2044L16.5898 21.0522L16.5885 21.0529L16.0594 20.2044ZM19.7272 15.7321C19.9049 15.3998 19.9598 15.1613 19.954 15.0191C19.9516 14.9597 19.9391 14.9229 19.9231 14.8942C19.9069 14.8648 19.8673 14.8084 19.7644 14.7367L20.9071 13.0953C21.5832 13.566 21.9232 14.2215 21.9524 14.9376C21.9789 15.5892 21.7457 16.1986 21.4909 16.6752L19.7272 15.7321ZM19.7645 14.7368C19.4265 14.5015 19.0105 14.5017 18.4623 14.8095C17.8968 15.1272 17.4233 15.6641 17.2356 16.0201L15.4664 15.0875C15.8332 14.3916 16.5805 13.5726 17.483 13.0657C18.4028 12.5492 19.7019 12.2564 20.9071 13.0953L19.7645 14.7368ZM17.2357 16.02C17.2007 16.0863 16.9181 16.6979 16.2017 16.7865L15.9561 14.8016C15.755 14.8265 15.6078 14.9296 15.5258 15.0157C15.4644 15.0801 15.4413 15.1349 15.4663 15.0876L17.2357 16.02ZM15.1045 16.0191C14.9688 15.4313 14.8331 14.8436 14.6975 14.2557L16.6463 13.8061C16.7819 14.3937 16.9175 14.9813 17.0533 15.5691L15.1045 16.0191ZM14.6976 14.2562C14.6704 14.1388 14.6557 14.0807 14.639 14.0334C14.6252 13.9944 14.6184 13.989 14.6233 13.9954L16.211 12.7791C16.5116 13.1714 16.6006 13.6088 16.6462 13.8056L14.6976 14.2562ZM14.6234 13.9954C14.6661 14.0512 14.7101 14.0498 14.6512 14.0364C14.573 14.0186 14.4389 14.01 14.211 14.023L14.0966 12.0263C14.5661 11.9994 15.5853 11.9623 16.211 12.7791L14.6234 13.9954ZM14.2115 14.023C13.8163 14.0459 13.4601 14.2274 13.2501 14.4383L11.8327 13.0273C12.3844 12.4731 13.2019 12.078 14.0962 12.0264L14.2115 14.023ZM13.25 14.4385C12.9669 14.7227 12.8848 15.0965 12.9846 15.4831L11.0481 15.983C10.7937 14.9975 10.9921 13.8714 11.8328 13.0272L13.25 14.4385ZM12.9846 15.4832C13.1287 16.0413 13.5671 16.6392 14.2541 17.3485C14.589 17.6944 14.9438 18.0288 15.3173 18.3891C15.6806 18.7397 16.0582 19.1117 16.39 19.4941L14.8793 20.8048C14.6107 20.4953 14.2894 20.1765 13.9286 19.8284C13.5779 19.4901 13.1834 19.1178 12.8174 18.7399C12.1024 18.0016 11.332 17.0832 11.0481 15.9829L12.9846 15.4832ZM16.3897 19.4938C16.4058 19.5123 16.3704 19.4673 16.3029 19.4192C16.2232 19.3624 16.0882 19.2928 15.9093 19.2809L15.7771 21.2765C15.233 21.2405 14.9276 20.8604 14.8796 20.8051L16.3897 19.4938ZM15.9112 19.281C15.7611 19.2708 15.6464 19.3061 15.5871 19.3298C15.535 19.3506 15.5049 19.3717 15.5303 19.3558L16.5885 21.0529C16.5427 21.0815 16.2161 21.3065 15.7752 21.2764L15.9112 19.281ZM15.5291 19.3566C16.4144 18.8028 17.283 18.2444 18.0356 17.6323C18.7897 17.0189 19.3734 16.3936 19.7272 15.732L21.4909 16.6752C20.9619 17.6644 20.1553 18.4862 19.2975 19.1838C18.4382 19.8828 17.4734 20.4994 16.5898 21.0522L15.5291 19.3566Z" fill="black" mask="url(#path-7-inside-1_501_538)"/>
<rect x="26.0752" y="8.20941" width="2.92749" height="1.23463" rx="0.617314" fill="#9CD8EA" stroke="black"/>
<rect x="13.5996" y="3.74017" width="5.93086" height="1.23463" rx="0.617314" fill="#9CD8EA" stroke="black"/>
<rect x="27.6544" y="22.4173" width="0.924114" height="1.31051" rx="0.462057" fill="#9CD8EA" stroke="black" stroke-width="0.924114"/>
<ellipse cx="16.5" cy="34.6923" rx="14" ry="2.30769" fill="#656565"/>
</svg>
