<svg width="36" height="43" viewBox="0 0 36 43" fill="none" xmlns="http://www.w3.org/2000/svg">
<path d="M3.78835 21.3821C3.08444 16.5247 2.77502 13.8089 3.18078 9.04873C5.05687 6.87701 6.26508 5.96218 8.95269 5.38206C12.2246 4.93091 14.1097 4.81752 17.7624 5.38206C23.5612 6.77327 25.6894 8.09084 29.6101 10.3821C29.9262 12.3116 29.8581 13.2076 29.6101 14.7154C31.095 14.8829 31.6159 15.1434 32.3441 15.7154C33.72 16.8603 34.1996 17.5202 34.7744 18.7154C34.9914 20.8018 35.1489 21.9924 34.7744 23.7154C34.0834 24.8134 33.5831 25.4043 32.3441 26.382C30.5271 27.0769 29.4494 27.2676 27.4836 27.382C27.0515 28.5975 26.5371 29.1591 25.3571 30.0487C21.0406 30.7052 18.6338 31.0664 15.9397 30.7154C13.9321 30.5694 12.2325 30.0851 8.95269 29.0487C6.50249 27.591 5.38217 25.8754 3.78835 21.3821Z" fill="#A1C298" stroke="black"/>
<path d="M23.7654 9.3275C23.7654 9.43174 23.6809 9.65196 23.2288 9.94656C22.7994 10.2263 22.1487 10.4969 21.3095 10.7316C19.6381 11.1991 17.3308 11.4942 14.8481 11.4942C12.3653 11.4942 9.97985 11.1991 8.22943 10.7302C7.35063 10.4947 6.6597 10.2226 6.20023 9.93973C5.70957 9.6376 5.62695 9.41669 5.62695 9.3275C5.62695 8.87991 6.04747 8.17761 7.26404 7.55683C8.4454 6.95403 10.2612 6.5 12.7216 6.5C15.186 6.5 18.0254 6.95552 20.243 7.59206C21.3535 7.9108 22.2847 8.26837 22.9275 8.62382C23.2504 8.80237 23.4782 8.96827 23.6187 9.11166C23.7566 9.25238 23.7649 9.32326 23.7654 9.32749C23.7654 9.32775 23.7654 9.32776 23.7654 9.3275Z" fill="#FFFDDE" stroke="black"/>
<path d="M32.8793 22.3243L32.8793 22.3244C32.8793 23.7083 31.7195 24.613 30.6869 24.502C30.3974 24.4709 30.1779 24.405 30.0066 24.2998C29.8423 24.199 29.6922 24.0438 29.5674 23.7797C29.3023 23.219 29.1677 22.2044 29.3181 20.3834L29.3181 20.3833C29.3798 19.6351 29.4399 19.0375 29.515 18.5613C29.5907 18.0804 29.6771 17.7557 29.7774 17.5378C29.8728 17.3307 29.9663 17.2504 30.0511 17.2098C30.1483 17.1632 30.3081 17.1335 30.5985 17.1647C31.212 17.2306 31.708 17.3674 32.0991 17.9527C32.528 18.5943 32.88 19.8455 32.8793 22.3243Z" fill="#FFCACA" stroke="black"/>
<g filter="url(#filter0_d_501_292)">
<ellipse cx="16.9738" cy="33" rx="12.759" ry="2" fill="#656565"/>
</g>
<path d="M10.3016 2.65408C10.1414 2.11618 9.84859 1.63936 9.31866 1.64543C8.35631 1.65657 8.3314 3.10308 8.54264 3.79995C8.56309 3.8674 8.58447 3.94975 8.53942 4.00896C8.26369 3.77225 7.98798 3.53557 7.71228 3.29882C7.6084 3.20969 7.50175 3.11889 7.37276 3.07592C7.13797 2.99772 6.95334 3.14637 6.78512 3.3341C6.57134 3.57296 6.47529 3.91297 6.4887 4.2278C6.50839 4.69222 6.74925 5.10163 7.07774 5.37155C7.87172 6.02402 9.10832 6.00446 10.0695 6.25986C10.11 6.27063 10.1576 6.27998 10.1934 6.2507C10.2244 6.2254 10.2341 6.1809 10.2411 6.14078C10.4386 5.00147 10.6286 3.752 10.3016 2.65408Z" fill="#FF7777"/>
<path d="M16.7263 4.19889C17.1595 3.89177 17.5051 3.45957 17.3647 2.89885C17.1095 1.88061 15.8285 2.22289 15.2682 2.62464C15.214 2.66354 15.1468 2.7072 15.0832 2.6745C15.2215 2.3216 15.3598 1.96875 15.4982 1.61588C15.5502 1.48294 15.6031 1.34664 15.608 1.19882C15.6171 0.929773 15.4391 0.771761 15.2307 0.641129C14.9658 0.475185 14.6416 0.459942 14.3676 0.554415C13.9634 0.693685 13.664 1.0536 13.5098 1.47094C13.1372 2.47968 13.4696 3.78675 13.4896 4.87164C13.4904 4.91744 13.4943 4.97029 13.5292 5.00078C13.5594 5.02729 13.6011 5.02619 13.6382 5.02341C14.6926 4.94252 15.8421 4.82573 16.7263 4.19889Z" fill="#FF7777"/>
<defs>
<filter id="filter0_d_501_292" x="0.214844" y="31" width="33.5181" height="12" filterUnits="userSpaceOnUse" color-interpolation-filters="sRGB">
<feFlood flood-opacity="0" result="BackgroundImageFix"/>
<feColorMatrix in="SourceAlpha" type="matrix" values="0 0 0 0 0 0 0 0 0 0 0 0 0 0 0 0 0 0 127 0" result="hardAlpha"/>
<feOffset dy="4"/>
<feGaussianBlur stdDeviation="2"/>
<feComposite in2="hardAlpha" operator="out"/>
<feColorMatrix type="matrix" values="0 0 0 0 0 0 0 0 0 0 0 0 0 0 0 0 0 0 0.25 0"/>
<feBlend mode="normal" in2="BackgroundImageFix" result="effect1_dropShadow_501_292"/>
<feBlend mode="normal" in="SourceGraphic" in2="effect1_dropShadow_501_292" result="shape"/>
</filter>
</defs>
</svg>
