<svg width="33" height="37" viewBox="0 0 33 37" fill="none" xmlns="http://www.w3.org/2000/svg">
<path d="M0.5 24.7782V6.84338C0.5 4.83477 1.53164 2.96694 3.2318 1.89736C4.16374 1.31107 5.24236 1 6.34338 1H26.4893C27.583 1 28.656 1.29844 29.5927 1.86316C31.397 2.95094 32.5 4.90395 32.5 7.01075V24.6099C32.5 26.7273 31.3707 28.684 29.5374 29.7432C28.6357 30.2642 27.6128 30.5385 26.5715 30.5385H6.2603C5.21212 30.5385 4.18381 30.2525 3.28615 29.7113C1.55708 28.6688 0.5 26.7972 0.5 24.7782Z" fill="#D9D9D9" stroke="black"/>
<path d="M3.39258 21.4581V7.20335C3.39258 5.59063 4.22336 4.09166 5.59093 3.2369C6.33435 2.77225 7.19338 2.52588 8.07005 2.52588H24.253C25.1239 2.52588 25.9785 2.76223 26.7256 3.20974C28.1767 4.07893 29.0649 5.64621 29.0649 7.33773V21.323C29.0649 23.023 28.1557 24.5932 26.6814 25.4395C25.9623 25.8522 25.1476 26.0694 24.3185 26.0694H8.00394C7.16933 26.0694 6.35037 25.8429 5.63438 25.4141C4.24373 24.5811 3.39258 23.0791 3.39258 21.4581Z" fill="#F59FAF" stroke="black"/>
<path d="M3.57324 20.7138V7.79989C3.57324 5.64712 4.871 3.74377 6.99576 3.39763C7.12568 3.37647 7.25927 3.35341 7.39787 3.32732C7.46568 3.31455 7.53473 3.30753 7.60372 3.30718L8.52131 3.3025C9.32403 3.2984 9.64928 4.33437 8.98827 4.78983C8.76733 4.94206 8.63539 5.1932 8.63539 5.4615V12.7594C8.63539 13.3482 8.59036 13.936 8.50069 14.5179L7.20054 22.9542C7.13594 23.3734 7.37116 23.7812 7.76632 23.9351L8.69336 24.2963C9.24166 24.5099 9.18413 25.3037 8.61076 25.436C8.53758 25.4529 8.46188 25.4557 8.38748 25.4454C8.07257 25.402 7.75667 25.3738 7.43464 25.3485C5.07617 25.1634 3.57324 23.0796 3.57324 20.7138Z" fill="#F5859C"/>
<mask id="path-4-inside-1_501_464" fill="white">
<path d="M21.7511 13.8709C22.3065 13.094 22.4913 12.2418 21.4001 11.6736C19.4185 10.6419 16.995 12.2363 16.2829 13.2467C16.214 13.3445 16.1226 13.46 15.9336 13.4775C15.7593 12.913 15.585 12.3485 15.4109 11.784C15.3451 11.5713 15.2765 11.3538 15.0838 11.1657C14.733 10.8233 14.1125 10.7895 13.4614 10.8174C12.6335 10.8532 11.8798 11.1302 11.3908 11.4976C10.6692 12.0396 10.489 12.7599 10.7165 13.4189C11.2661 15.0119 13.8211 16.3317 15.3631 17.661C15.4282 17.7171 15.5099 17.7792 15.6309 17.7852C15.7357 17.7905 15.8284 17.7511 15.9086 17.7137C18.1802 16.6509 20.6174 15.4565 21.7511 13.8709Z"/>
</mask>
<path d="M21.7511 13.8709C22.3065 13.094 22.4913 12.2418 21.4001 11.6736C19.4185 10.6419 16.995 12.2363 16.2829 13.2467C16.214 13.3445 16.1226 13.46 15.9336 13.4775C15.7593 12.913 15.585 12.3485 15.4109 11.784C15.3451 11.5713 15.2765 11.3538 15.0838 11.1657C14.733 10.8233 14.1125 10.7895 13.4614 10.8174C12.6335 10.8532 11.8798 11.1302 11.3908 11.4976C10.6692 12.0396 10.489 12.7599 10.7165 13.4189C11.2661 15.0119 13.8211 16.3317 15.3631 17.661C15.4282 17.7171 15.5099 17.7792 15.6309 17.7852C15.7357 17.7905 15.8284 17.7511 15.9086 17.7137C18.1802 16.6509 20.6174 15.4565 21.7511 13.8709Z" fill="#FF7777"/>
<path d="M21.4001 11.6736L21.8619 10.7866L21.862 10.7867L21.4001 11.6736ZM16.2829 13.2467L15.4654 12.6708L15.4656 12.6706L16.2829 13.2467ZM15.9336 13.4775L16.0257 14.4733L15.2175 14.5481L14.978 13.7725L15.9336 13.4775ZM15.4109 11.784L16.3663 11.4886L16.3664 11.4892L15.4109 11.784ZM15.0838 11.1657L15.7823 10.4501L15.7824 10.4502L15.0838 11.1657ZM13.4614 10.8174L13.4182 9.81838L13.4186 9.81837L13.4614 10.8174ZM11.3908 11.4976L11.9915 12.2971L11.9913 12.2972L11.3908 11.4976ZM10.7165 13.4189L11.6618 13.0927L11.6618 13.0927L10.7165 13.4189ZM15.3631 17.661L14.7104 18.4186L14.7101 18.4184L15.3631 17.661ZM15.6309 17.7852L15.6804 16.7864L15.6818 16.7865L15.6309 17.7852ZM15.9086 17.7137L16.3323 18.6195L16.3312 18.62L15.9086 17.7137ZM20.9376 13.2893C21.0439 13.1407 21.1138 13.0137 21.1542 12.9117C21.1945 12.8098 21.1951 12.7589 21.1945 12.7484C21.1943 12.7445 21.1941 12.7464 21.1956 12.7507C21.1972 12.7551 21.1973 12.7527 21.19 12.7429C21.1744 12.7219 21.113 12.6515 20.9382 12.5605L21.862 10.7867C22.6271 11.1851 23.1464 11.8113 23.1916 12.6396C23.231 13.3621 22.8872 14.0012 22.5646 14.4525L20.9376 13.2893ZM20.9383 12.5606C20.307 12.2319 19.5392 12.2859 18.7527 12.6163C17.9541 12.9518 17.3315 13.4948 17.1003 13.8228L15.4656 12.6706C15.9465 11.9882 16.8917 11.2288 17.9782 10.7724C19.0768 10.3109 20.5117 10.0836 21.8619 10.7866L20.9383 12.5606ZM17.1005 13.8226C17.0001 13.9651 16.6805 14.4127 16.0257 14.4733L15.8414 12.4818C15.7936 12.4862 15.738 12.4984 15.6797 12.5222C15.6217 12.5459 15.5734 12.5761 15.5356 12.6058C15.4684 12.6586 15.4387 12.7087 15.4654 12.6708L17.1005 13.8226ZM14.978 13.7725C14.8038 13.208 14.6295 12.6434 14.4553 12.0787L16.3664 11.4892C16.5405 12.0536 16.7148 12.618 16.8891 13.1826L14.978 13.7725ZM14.4555 12.0793C14.4386 12.0247 14.4272 11.9883 14.4156 11.9554C14.4047 11.9243 14.3967 11.9055 14.3911 11.8936C14.3884 11.8879 14.3864 11.8842 14.3852 11.882C14.3846 11.8809 14.3841 11.8802 14.3838 11.8797C14.3836 11.8793 14.3834 11.879 14.3834 11.879C14.3834 11.879 14.3834 11.8791 14.3835 11.8792C14.3835 11.8792 14.3836 11.8793 14.3837 11.8794C14.3839 11.8797 14.3841 11.88 14.3844 11.8803C14.385 11.881 14.3853 11.8813 14.3852 11.8812L15.7824 10.4502C16.1769 10.8354 16.3035 11.2855 16.3663 11.4886L14.4555 12.0793ZM14.3852 11.8812C14.4117 11.9071 14.3928 11.8684 14.2174 11.8385C14.0438 11.8089 13.811 11.8034 13.5042 11.8165L13.4186 9.81837C13.7629 9.80361 14.166 9.80096 14.5531 9.86688C14.9384 9.93249 15.4051 10.0819 15.7823 10.4501L14.3852 11.8812ZM13.5046 11.8165C12.854 11.8446 12.3006 12.0648 11.9915 12.2971L10.7901 10.6982C11.459 10.1955 12.413 9.86183 13.4182 9.81838L13.5046 11.8165ZM11.9913 12.2972C11.5959 12.5942 11.5843 12.8682 11.6618 13.0927L9.77121 13.7452C9.3938 12.6516 9.74245 11.485 10.7902 10.698L11.9913 12.2972ZM11.6618 13.0927C11.8286 13.5761 12.3688 14.1445 13.2789 14.8474C13.712 15.1819 14.1717 15.506 14.649 15.8505C15.1147 16.1866 15.5946 16.5403 16.016 16.9035L14.7101 18.4184C14.3605 18.117 13.9429 17.8073 13.4786 17.4723C13.026 17.1457 12.5234 16.791 12.0564 16.4303C11.1661 15.7426 10.154 14.8547 9.77118 13.7451L11.6618 13.0927ZM16.0157 16.9033C16.0339 16.919 16.003 16.8896 15.9464 16.8594C15.8799 16.824 15.788 16.7917 15.6804 16.7864L15.5814 18.7839C15.1089 18.7605 14.809 18.5035 14.7104 18.4186L16.0157 16.9033ZM15.6818 16.7865C15.5924 16.7819 15.5251 16.7976 15.4923 16.8074C15.4647 16.8157 15.4528 16.8229 15.4859 16.8074L16.3312 18.62C16.2491 18.6583 15.9557 18.803 15.5799 18.7839L15.6818 16.7865ZM15.4848 16.808C16.6225 16.2756 17.754 15.7319 18.7368 15.134C19.7296 14.5301 20.4872 13.9193 20.9376 13.2893L22.5646 14.4525C21.8814 15.4081 20.8535 16.1873 19.7763 16.8426C18.6892 17.504 17.4662 18.089 16.3323 18.6195L15.4848 16.808Z" fill="black" mask="url(#path-4-inside-1_501_464)"/>
<path d="M13.5 1.9231H18.9237" stroke="black" stroke-width="0.3"/>
<path d="M18.8019 28.0314C18.8019 28.2696 18.6393 28.5694 18.1965 28.8364C17.7633 29.0976 17.1326 29.2754 16.4093 29.2754C15.6859 29.2754 15.0553 29.0976 14.622 28.8364C14.1792 28.5694 14.0166 28.2696 14.0166 28.0314C14.0166 27.7933 14.1792 27.4935 14.622 27.2265C15.0553 26.9653 15.6859 26.7875 16.4093 26.7875C17.1326 26.7875 17.7633 26.9653 18.1965 27.2265C18.6393 27.4935 18.8019 27.7933 18.8019 28.0314Z" fill="#D9D9D9" stroke="black"/>
<ellipse cx="17.5" cy="34.6923" rx="14" ry="2.30769" fill="#656565"/>
</svg>
